<svg xmlns="http://www.w3.org/2000/svg" width="21" height="15" fill="none"><g clip-path="url(#a)"><mask id="b" width="21" height="15" x="0" y="0" maskUnits="userSpaceOnUse" style="mask-type:alpha"><path fill="#fff" d="M19 0H2a2 2 0 0 0-2 2v11c0 1.1.9 2 2 2h17a2 2 0 0 0 2-2V2a2 2 0 0 0-2-2"/></mask><g mask="url(#b)"><path fill="#00008E" d="M19 0H2a2 2 0 0 0-2 2v11c0 1.1.9 2 2 2h17a2 2 0 0 0 2-2V2a2 2 0 0 0-2-2"/><path fill="#BDC4E7" fill-rule="evenodd" d="m4 11.5 1-.5.5-1 .5 1 1 .5-1 .5-.5 1-.5-1zM14 3v1h1V3zm3 1v1h1V4zm-4 2v1h1V6zm3 1v1h1V7zm-1 3v1h1v-1z" clip-rule="evenodd"/><path fill="#fff" d="M9 1H2a1 1 0 0 0-1 1v5a1 1 0 0 0 1 1h7a1 1 0 0 0 1-1V2a1 1 0 0 0-1-1"/><path fill="red" fill-rule="evenodd" d="M5 5H2V4h3V2h1v2h3v1H6v2H5zm2.5 1v1H9V6zm0-4v1H9V2zM2 6v1h1.5V6zm0-4v1h1.5V2z" clip-rule="evenodd"/><path stroke="#000" stroke-opacity=".1" d="M19 .5H2C1.17.5.5 1.17.5 2v11c0 .83.67 1.5 1.5 1.5h17c.83 0 1.5-.67 1.5-1.5V2c0-.83-.67-1.5-1.5-1.5Z"/></g></g><defs><clipPath id="a"><path fill="#fff" d="M0 0h21v15H0z"/></clipPath></defs></svg>