<svg xmlns="http://www.w3.org/2000/svg" width="21" height="15" fill="none"><g clip-path="url(#a)"><mask id="b" width="21" height="15" x="0" y="0" maskUnits="userSpaceOnUse" style="mask-type:alpha"><path fill="#fff" d="M19 0H2a2 2 0 0 0-2 2v11c0 1.1.9 2 2 2h17a2 2 0 0 0 2-2V2a2 2 0 0 0-2-2"/></mask><g mask="url(#b)"><path fill="#3D87E0" d="M19 0H2a2 2 0 0 0-2 2v11c0 1.1.9 2 2 2h17a2 2 0 0 0 2-2V2a2 2 0 0 0-2-2"/><path fill="#D4062F" fill-rule="evenodd" d="M4.49 4.49C5.36 4.43 6 4.24 6 4s-.64-.43-1.51-.48C4.43 2.65 4.24 2 4 2s-.43.65-.48 1.52C2.65 3.57 2 3.77 2 4s.65.43 1.52.49C3.57 5.36 3.77 6 4 6s.43-.64.49-1.51" clip-rule="evenodd"/><path fill="#fff" fill-rule="evenodd" d="M4.49 4.49C5.36 4.43 6 4.24 6 4s-.64-.43-1.51-.48C4.43 2.65 4.24 2 4 2s-.43.65-.48 1.52C2.65 3.57 2 3.77 2 4s.65.43 1.52.49C3.57 5.36 3.77 6 4 6s.43-.64.49-1.51m.02.5L5 4.5c-.1 1.22-.34 2-1 2s-.91-.79-.98-1.98l.46.46C2.28 4.91 1.5 4.66 1.5 4s.79-.91 1.98-.98l-.46.46c.07-1.2.32-1.98.98-1.98s.91.79.98 1.98l-.46-.46c1.2.07 1.98.32 1.98.98s-.79.91-1.98.98" clip-rule="evenodd"/><path fill="#FAD800" fill-rule="evenodd" d="M0 9h21v1H0zm0 2h21v1H0z" clip-rule="evenodd"/><path stroke="#000" stroke-opacity=".1" d="M19 .5H2C1.17.5.5 1.17.5 2v11c0 .83.67 1.5 1.5 1.5h17c.83 0 1.5-.67 1.5-1.5V2c0-.83-.67-1.5-1.5-1.5Z"/></g></g><defs><clipPath id="a"><path fill="#fff" d="M0 0h21v15H0z"/></clipPath></defs></svg>