<svg xmlns="http://www.w3.org/2000/svg" width="21" height="15" fill="none"><g clip-path="url(#a)"><mask id="b" width="21" height="15" x="0" y="0" maskUnits="userSpaceOnUse" style="mask-type:alpha"><path fill="#fff" d="M19 0H2a2 2 0 0 0-2 2v11c0 1.1.9 2 2 2h17a2 2 0 0 0 2-2V2a2 2 0 0 0-2-2"/></mask><g mask="url(#b)"><path fill="#D0091E" d="M19 0H2a2 2 0 0 0-2 2v11c0 1.1.9 2 2 2h17a2 2 0 0 0 2-2V2a2 2 0 0 0-2-2"/><path fill="#08B731" fill-rule="evenodd" d="m0 0 10 8-10 7zm21 0L11 8l10 7z" clip-rule="evenodd"/><path fill="#fff" fill-rule="evenodd" d="M7.16 6.46 0 1.5V0h1.5l6.85 4.74a3.5 3.5 0 0 1 4.3 0L19.5 0H21v1.5l-7.16 4.96a3.5 3.5 0 0 1 0 2.08L21 13.5V15h-1.5l-6.85-4.74a3.5 3.5 0 0 1-4.3 0L1.5 15H0v-1.5l7.16-4.96a3.5 3.5 0 0 1 0-2.08" clip-rule="evenodd"/><path fill="#D0091E" fill-rule="evenodd" d="M10 6h1v1h-1zm1 2h1v1h-1zM9 8h1v1H9z" clip-rule="evenodd"/><path stroke="#000" stroke-opacity=".1" d="M19 .5H2C1.17.5.5 1.17.5 2v11c0 .83.67 1.5 1.5 1.5h17c.83 0 1.5-.67 1.5-1.5V2c0-.83-.67-1.5-1.5-1.5Z"/></g></g><defs><clipPath id="a"><path fill="#fff" d="M0 0h21v15H0z"/></clipPath></defs></svg>