<svg xmlns="http://www.w3.org/2000/svg" width="21" height="15" fill="none"><g clip-path="url(#a)"><mask id="b" width="21" height="15" x="0" y="0" maskUnits="userSpaceOnUse" style="mask-type:alpha"><path fill="#fff" d="M19 0H2a2 2 0 0 0-2 2v11c0 1.1.9 2 2 2h17a2 2 0 0 0 2-2V2a2 2 0 0 0-2-2"/></mask><g mask="url(#b)"><path fill="#009C34" d="M19 0H2a2 2 0 0 0-2 2v11c0 1.1.9 2 2 2h17a2 2 0 0 0 2-2V2a2 2 0 0 0-2-2"/><path fill="#F8E23D" fill-rule="evenodd" d="M10.5 2 18 7.5 10.5 13 3 7.5" clip-rule="evenodd"/><path fill="#002478" d="M10.5 11a3.5 3.5 0 1 0 0-7 3.5 3.5 0 0 0 0 7"/><path fill="#91A1C3" fill-rule="evenodd" d="M9 9v1h1V9zm2 0v1h1V9z" clip-rule="evenodd"/><path stroke="#C9D0E0" d="M8 6s2.26.4 3.9 1.1L14 8"/><path stroke="#000" stroke-opacity=".1" d="M19 .5H2C1.17.5.5 1.17.5 2v11c0 .83.67 1.5 1.5 1.5h17c.83 0 1.5-.67 1.5-1.5V2c0-.83-.67-1.5-1.5-1.5Z"/></g></g><defs><clipPath id="a"><path fill="#fff" d="M0 0h21v15H0z"/></clipPath></defs></svg>