<svg xmlns="http://www.w3.org/2000/svg" width="21" height="15" fill="none"><g clip-path="url(#a)"><mask id="b" width="21" height="15" x="0" y="0" maskUnits="userSpaceOnUse" style="mask-type:alpha"><path fill="#fff" d="M19 0H2a2 2 0 0 0-2 2v11c0 1.1.9 2 2 2h17a2 2 0 0 0 2-2V2a2 2 0 0 0-2-2"/></mask><g mask="url(#b)"><path fill="#fff" d="M19 0H2a2 2 0 0 0-2 2v11c0 1.1.9 2 2 2h17a2 2 0 0 0 2-2V2a2 2 0 0 0-2-2"/><path fill="#FDD200" fill-rule="evenodd" d="M0 10h21v5H0z" clip-rule="evenodd"/><path fill="#20981D" fill-rule="evenodd" d="M0 8h21v3H0z" clip-rule="evenodd"/><path fill="#002D84" fill-rule="evenodd" d="M0 0h21v5H0z" clip-rule="evenodd"/><path fill="#FFCF00" fill-rule="evenodd" d="M3 2h1v1H3z" clip-rule="evenodd"/><path fill="#A7972D" fill-rule="evenodd" d="M2 2h1v1H2zm2 0h1v1H4zM3 3h1v1H3zm0-2h1v1H3z" clip-rule="evenodd"/><path fill="#D4062E" fill-rule="evenodd" d="M9 0h3v15H9z" clip-rule="evenodd"/><path stroke="#000" stroke-opacity=".1" d="M19 .5H2C1.17.5.5 1.17.5 2v11c0 .83.67 1.5 1.5 1.5h17c.83 0 1.5-.67 1.5-1.5V2c0-.83-.67-1.5-1.5-1.5Z"/></g></g><defs><clipPath id="a"><path fill="#fff" d="M0 0h21v15H0z"/></clipPath></defs></svg>