<svg xmlns="http://www.w3.org/2000/svg" width="21" height="15" fill="none"><g clip-path="url(#a)"><mask id="b" width="21" height="15" x="0" y="0" maskUnits="userSpaceOnUse" style="mask-type:alpha"><path fill="#fff" d="M19 0H2a2 2 0 0 0-2 2v11c0 1.1.9 2 2 2h17a2 2 0 0 0 2-2V2a2 2 0 0 0-2-2"/></mask><g mask="url(#b)"><path fill="#fff" d="M19 0H2a2 2 0 0 0-2 2v11c0 1.1.9 2 2 2h17a2 2 0 0 0 2-2V2a2 2 0 0 0-2-2"/><path fill="#357C58" fill-rule="evenodd" d="M0 0h10v15H0z" clip-rule="evenodd"/><path fill="#E82E2E" fill-rule="evenodd" d="M13.05 10.26A4.49 4.49 0 0 1 5 7.5a4.5 4.5 0 0 1 8.05-2.76 4 4 0 0 0-2.3-.74C8.68 4 7 5.57 7 7.5S8.68 11 10.75 11a4 4 0 0 0 2.3-.74" clip-rule="evenodd"/><path fill="#E82E2E" fill-rule="evenodd" d="m13 7.5 1-.5.5-1 .5 1 1 .5-1 .5-.5 1-.5-1z" clip-rule="evenodd"/><path stroke="#000" stroke-opacity=".1" d="M19 .5H2C1.17.5.5 1.17.5 2v11c0 .83.67 1.5 1.5 1.5h17c.83 0 1.5-.67 1.5-1.5V2c0-.83-.67-1.5-1.5-1.5Z"/></g></g><defs><clipPath id="a"><path fill="#fff" d="M0 0h21v15H0z"/></clipPath></defs></svg>