<svg xmlns="http://www.w3.org/2000/svg" width="21" height="15" fill="none"><g clip-path="url(#a)"><mask id="b" width="21" height="15" x="0" y="0" maskUnits="userSpaceOnUse" style="mask-type:alpha"><path fill="#fff" d="M19 0H2a2 2 0 0 0-2 2v11c0 1.1.9 2 2 2h17a2 2 0 0 0 2-2V2a2 2 0 0 0-2-2"/></mask><g mask="url(#b)"><path fill="#004BA5" d="M19 0H2a2 2 0 0 0-2 2v11c0 1.1.9 2 2 2h17a2 2 0 0 0 2-2V2a2 2 0 0 0-2-2"/><path fill="#F01616" fill-rule="evenodd" d="M0 11h21v4H0z" clip-rule="evenodd"/><path fill="#FFDF00" fill-rule="evenodd" d="M0 0h21v8H0z" clip-rule="evenodd"/><path fill="#3D2620" fill-rule="evenodd" d="M6 4h3l1.5 1L12 4h3l-3 1-1 1h-1L9 5z" clip-rule="evenodd"/><path fill="#07A7D3" d="M10.5 10c.83 0 1.5-.9 1.5-2s-.67-2-1.5-2S9 6.9 9 8s.67 2 1.5 2"/><path fill="#FFDF00" fill-rule="evenodd" d="M8 7v2l2 1h1l2-1V7l1 2-1 1-2 1h-1l-2-1-1-1z" clip-rule="evenodd"/><path stroke="#000" stroke-opacity=".1" d="M19 .5H2C1.17.5.5 1.17.5 2v11c0 .83.67 1.5 1.5 1.5h17c.83 0 1.5-.67 1.5-1.5V2c0-.83-.67-1.5-1.5-1.5Z"/></g></g><defs><clipPath id="a"><path fill="#fff" d="M0 0h21v15H0z"/></clipPath></defs></svg>