<svg xmlns="http://www.w3.org/2000/svg" width="21" height="15" fill="none"><g clip-path="url(#a)"><mask id="b" width="21" height="15" x="0" y="0" maskUnits="userSpaceOnUse" style="mask-type:alpha"><path fill="#fff" d="M19 0H2a2 2 0 0 0-2 2v11c0 1.1.9 2 2 2h17a2 2 0 0 0 2-2V2a2 2 0 0 0-2-2"/></mask><g mask="url(#b)"><path fill="#3C87E0" d="M19 0H2a2 2 0 0 0-2 2v11c0 1.1.9 2 2 2h17a2 2 0 0 0 2-2V2a2 2 0 0 0-2-2"/><path fill="#00AF1E" fill-rule="evenodd" d="M0 0h21v8H0z" clip-rule="evenodd"/><path fill="#ED0030" fill-rule="evenodd" d="m0 0 21 7.5L0 15z" clip-rule="evenodd"/><path fill="#FFC800" fill-rule="evenodd" d="M9 7.5c0-1.38-1.12-2.5-2.5-3C5.12 5 4 6.12 4 7.5a2.5 2.5 0 0 0 2 2.45V6.5c0-.28.23-.5.5-.5.28 0 .5.22.5.5v3.45A2.5 2.5 0 0 0 9 7.5m1 0c0-1.93-1.57-3.5-3.5-3C4.57 4 3 5.57 3 7.5a3.5 3.5 0 1 0 7 0" clip-rule="evenodd"/><path stroke="#000" stroke-opacity=".1" d="M19 .5H2C1.17.5.5 1.17.5 2v11c0 .83.67 1.5 1.5 1.5h17c.83 0 1.5-.67 1.5-1.5V2c0-.83-.67-1.5-1.5-1.5Z"/></g></g><defs><clipPath id="a"><path fill="#fff" d="M0 0h21v15H0z"/></clipPath></defs></svg>