<svg xmlns="http://www.w3.org/2000/svg" width="21" height="15" fill="none"><g clip-path="url(#a)"><mask id="b" width="21" height="15" x="0" y="0" maskUnits="userSpaceOnUse" style="mask-type:alpha"><path fill="#fff" d="M19 0H2a2 2 0 0 0-2 2v11c0 1.1.9 2 2 2h17a2 2 0 0 0 2-2V2a2 2 0 0 0-2-2"/></mask><g mask="url(#b)"><path fill="#CD0B20" d="M19 0H2a2 2 0 0 0-2 2v11c0 1.1.9 2 2 2h17a2 2 0 0 0 2-2V2a2 2 0 0 0-2-2"/><path fill="#FFCB00" fill-rule="evenodd" d="M0 4h21v7H0z" clip-rule="evenodd"/><path fill="#C8B47C" fill-rule="evenodd" d="M9 6.22v2.52C9 9.44 8.33 10 7.5 10h-2C4.67 10 4 9.44 4 8.74V6.22c0-.57.45-1.05 1.06-1.2.19-.52.76-.06 1.44-.06s1.25-.46 1.44.06c.61.16 1.06.63 1.06 1.2" clip-rule="evenodd"/><path fill="#B5B5B5" fill-rule="evenodd" d="M9 7h1v3H9zM3 7h1v3H3z" clip-rule="evenodd"/><path fill="#165C96" fill-rule="evenodd" d="M9 9h1v1H9zM3 9h1v1H3z" clip-rule="evenodd"/><path fill="#A0790A" fill-rule="evenodd" d="M9 6h1v1H9zM3 6h1v1H3z" clip-rule="evenodd"/><path fill="#D20636" fill-rule="evenodd" d="M5 6h1v1.5H5zm2 2h1v1.5H7z" clip-rule="evenodd"/><path fill="#A18793" fill-rule="evenodd" d="M7 6h1v1.5H7z" clip-rule="evenodd"/><path fill="#FFE100" fill-rule="evenodd" d="M5 8h1v1.5H5z" clip-rule="evenodd"/><path fill="#B6161A" fill-rule="evenodd" d="M6 6 5 5h3L7 6z" clip-rule="evenodd"/><path fill="#AC9300" fill-rule="evenodd" d="M6 4h1v1H6z" clip-rule="evenodd"/><path stroke="#000" stroke-opacity=".1" d="M19 .5H2C1.17.5.5 1.17.5 2v11c0 .83.67 1.5 1.5 1.5h17c.83 0 1.5-.67 1.5-1.5V2c0-.83-.67-1.5-1.5-1.5Z"/></g></g><defs><clipPath id="a"><path fill="#fff" d="M0 0h21v15H0z"/></clipPath></defs></svg>