<svg xmlns="http://www.w3.org/2000/svg" width="21" height="15" fill="none"><g clip-path="url(#a)"><mask id="b" width="21" height="15" x="0" y="0" maskUnits="userSpaceOnUse" style="mask-type:alpha"><path fill="#fff" d="M19 0H2a2 2 0 0 0-2 2v11c0 1.1.9 2 2 2h17a2 2 0 0 0 2-2V2a2 2 0 0 0-2-2"/></mask><g mask="url(#b)"><path fill="#22438B" d="M19 0H2a2 2 0 0 0-2 2v11c0 1.1.9 2 2 2h17a2 2 0 0 0 2-2V2a2 2 0 0 0-2-2"/><path fill="#fff" fill-rule="evenodd" d="m3 1-2.03.03L1 3l16.98 11.03 2.04-.04-.04-1.96z" clip-rule="evenodd"/><path fill="#C7152A" fill-rule="evenodd" d="M2 1 1 2l18 12 1-1z" clip-rule="evenodd"/><path fill="#fff" fill-rule="evenodd" d="M18 1h2v2S8.25 10.4 3.02 14.03c-.07.04-2 0-2 0l-.16-1.9z" clip-rule="evenodd"/><path fill="#C7152A" fill-rule="evenodd" d="M19.04.97 20 2 2 14l-1-1z" clip-rule="evenodd"/><path fill="#fff" fill-rule="evenodd" d="M8 1h5v4h7v5h-7v4H8v-4H1V5h7z" clip-rule="evenodd"/><path fill="#C7152A" fill-rule="evenodd" d="M9 1h3v5h8v3h-8v5H9V9H1V6h8z" clip-rule="evenodd"/><path stroke="#000" stroke-opacity=".1" d="M19 .5H2C1.17.5.5 1.17.5 2v11c0 .83.67 1.5 1.5 1.5h17c.83 0 1.5-.67 1.5-1.5V2c0-.83-.67-1.5-1.5-1.5Z"/></g></g><defs><clipPath id="a"><path fill="#fff" d="M0 0h21v15H0z"/></clipPath></defs></svg>