<svg xmlns="http://www.w3.org/2000/svg" width="21" height="15" fill="none"><g clip-path="url(#a)"><mask id="b" width="21" height="15" x="0" y="0" maskUnits="userSpaceOnUse" style="mask-type:alpha"><path fill="#fff" d="M19 0H2a2 2 0 0 0-2 2v11c0 1.1.9 2 2 2h17a2 2 0 0 0 2-2V2a2 2 0 0 0-2-2"/></mask><g mask="url(#b)"><path fill="#DE2910" d="M19 0H2a2 2 0 0 0-2 2v11c0 1.1.9 2 2 2h17a2 2 0 0 0 2-2V2a2 2 0 0 0-2-2"/><path fill="#fff" fill-rule="evenodd" d="M10.15 7.51c-2.7-1.14-1.5-4.68 1.09-4.5-.53.27-.6.77-.3 1.24.33.52-.03 1.36-.49 1.57-.74.33-.9 1.23-.3 1.7m.23-.12c.25-2.93 4-2.88 4.62-.36-.42-.41-.92-.33-1.27.1-.4.48-1.3.39-1.64.02-.55-.6-1.45-.47-1.7.24m.1.3c2.87-.62 3.92 2.97 1.7 4.3.27-.51.04-.97-.47-1.18-.58-.24-.76-1.14-.5-1.56.41-.7.02-1.53-.74-1.57m-3.73 3.29c.58.1.94-.26.99-.81.04-.62.84-1.07 1.33-.96.8.18 1.45-.45 1.26-1.18 1.47 2.55-1.62 4.65-3.58 2.95m-.6-5.48c.12.58.58.79 1.11.63.6-.18 1.3.4 1.38.9.11.8.93 1.2 1.55.75-1.85 2.3-4.92.16-4.04-2.28" clip-rule="evenodd"/><path stroke="#000" stroke-opacity=".1" d="M19 .5H2C1.17.5.5 1.17.5 2v11c0 .83.67 1.5 1.5 1.5h17c.83 0 1.5-.67 1.5-1.5V2c0-.83-.67-1.5-1.5-1.5Z"/></g></g><defs><clipPath id="a"><path fill="#fff" d="M0 0h21v15H0z"/></clipPath></defs></svg>