<svg xmlns="http://www.w3.org/2000/svg" width="21" height="15" fill="none"><g clip-path="url(#a)"><mask id="b" width="21" height="15" x="0" y="0" maskUnits="userSpaceOnUse" style="mask-type:alpha"><path fill="#fff" d="M19 0H2a2 2 0 0 0-2 2v11c0 1.1.9 2 2 2h17a2 2 0 0 0 2-2V2a2 2 0 0 0-2-2"/></mask><g mask="url(#b)"><path fill="#fff" d="M19 0H2a2 2 0 0 0-2 2v11c0 1.1.9 2 2 2h17a2 2 0 0 0 2-2V2a2 2 0 0 0-2-2"/><path fill="#150A99" fill-rule="evenodd" d="M0 10h21v5H0z" clip-rule="evenodd"/><path fill="red" fill-rule="evenodd" d="M0 0h21v5H0z" clip-rule="evenodd"/><path fill="#0091E0" fill-rule="evenodd" d="M8 4h1v1H8zm2-1h1v2h-1zm2 1h1v1h-1z" clip-rule="evenodd"/><path fill="#150A99" fill-rule="evenodd" d="M11 3h1v2h-1zM9 3h1v2H9z" clip-rule="evenodd"/></g><mask id="c" width="5" height="6" x="8" y="5" maskUnits="userSpaceOnUse" style="mask-type:alpha"><path fill="#fff" d="M13 8.5a2.5 2.5 0 0 1-5 0V5h5z"/></mask><g mask="url(#c)"><path fill="red" d="M13 8.5a2.5 2.5 0 0 1-5 0V5h5z"/><path fill="#fff" fill-rule="evenodd" d="M9 10h1v1H9zm2 0h1v1h-1zm-1-1h1v1h-1zM9 8h1v1H9zm2 0h1v1h-1zm-1-1h1v1h-1zM9 6h1v1H9zm2 0h1v1h-1zm-1-1h1v1h-1zm2 0h1v1h-1zm0 2h1v1h-1zm0 2h1v1h-1zM8 9h1v1H8zm0-2h1v1H8zm0-2h1v1H8z" clip-rule="evenodd"/><path stroke="#000" stroke-opacity=".1" d="M19 .5H2C1.17.5.5 1.17.5 2v11c0 .83.67 1.5 1.5 1.5h17c.83 0 1.5-.67 1.5-1.5V2c0-.83-.67-1.5-1.5-1.5Z"/></g></g><defs><clipPath id="a"><path fill="#fff" d="M0 0h21v15H0z"/></clipPath></defs></svg>