<svg xmlns="http://www.w3.org/2000/svg" width="21" height="15" fill="none"><g clip-path="url(#a)"><mask id="b" width="21" height="15" x="0" y="0" maskUnits="userSpaceOnUse" style="mask-type:alpha"><path fill="#fff" d="M19 0H2a2 2 0 0 0-2 2v11c0 1.1.9 2 2 2h17a2 2 0 0 0 2-2V2a2 2 0 0 0-2-2"/></mask><g mask="url(#b)"><path fill="#D4062E" d="M19 0H2a2 2 0 0 0-2 2v11c0 1.1.9 2 2 2h17a2 2 0 0 0 2-2V2a2 2 0 0 0-2-2"/><path fill="#0017A2" fill-rule="evenodd" d="M0 0h21v8H0z" clip-rule="evenodd"/><path fill="#fff" fill-rule="evenodd" d="M8 6h5v3H8z" clip-rule="evenodd"/><path fill="#F2B600" fill-rule="evenodd" d="M10 7h1v2h-1z" clip-rule="evenodd"/><path fill="#1C672C" fill-rule="evenodd" d="M9 7.5a1.5 1.5 0 1 1 3 0V9H9zm1 0c0-.28.23-.5.5-.5.28 0 .5.21.5.5V9h-1z" clip-rule="evenodd"/><path stroke="#000" stroke-opacity=".1" d="M19 .5H2C1.17.5.5 1.17.5 2v11c0 .83.67 1.5 1.5 1.5h17c.83 0 1.5-.67 1.5-1.5V2c0-.83-.67-1.5-1.5-1.5Z"/></g></g><defs><clipPath id="a"><path fill="#fff" d="M0 0h21v15H0z"/></clipPath></defs></svg>