<svg xmlns="http://www.w3.org/2000/svg" width="21" height="15" fill="none"><g clip-path="url(#a)"><mask id="b" width="21" height="15" x="0" y="0" maskUnits="userSpaceOnUse" style="mask-type:alpha"><path fill="#fff" d="M19 0H2a2 2 0 0 0-2 2v11c0 1.1.9 2 2 2h17a2 2 0 0 0 2-2V2a2 2 0 0 0-2-2"/></mask><g mask="url(#b)"><path fill="#fff" d="M19 0H2a2 2 0 0 0-2 2v11c0 1.1.9 2 2 2h17a2 2 0 0 0 2-2V2a2 2 0 0 0-2-2"/><path fill="#000" fill-rule="evenodd" d="M0 10h21v5H0z" clip-rule="evenodd"/><path fill="#007B3A" fill-rule="evenodd" d="M10 8h1v.5c0 .29.22.5.5.5a.5.5 0 0 0 .5-.5v-2c0-.28.23-.5.5-.5.28 0 .5.22.5.5V8h1.49c.28 0 .51.23.51.5a.5.5 0 0 1-.51.5H6.51A.5.5 0 0 1 6 8.5c0-.21.13-.4.32-.47l.12-.17 1.42-1.42a.5.5 0 0 1 .7 0c.2.2.2.5 0 .7L7.72 8H9v-.5c0-.28.23-.5.5-.5.28 0 .5.21.5.5z" clip-rule="evenodd"/><path fill="#D0091E" fill-rule="evenodd" d="M0 0h21v5H0z" clip-rule="evenodd"/><path stroke="#000" stroke-opacity=".1" d="M19 .5H2C1.17.5.5 1.17.5 2v11c0 .83.67 1.5 1.5 1.5h17c.83 0 1.5-.67 1.5-1.5V2c0-.83-.67-1.5-1.5-1.5Z"/></g></g><defs><clipPath id="a"><path fill="#fff" d="M0 0h21v15H0z"/></clipPath></defs></svg>