<svg xmlns="http://www.w3.org/2000/svg" width="21" height="15" fill="none"><g clip-path="url(#a)"><mask id="b" width="21" height="15" x="0" y="0" maskUnits="userSpaceOnUse" style="mask-type:alpha"><path fill="#fff" d="M19 0H2a2 2 0 0 0-2 2v11c0 1.1.9 2 2 2h17a2 2 0 0 0 2-2V2a2 2 0 0 0-2-2"/></mask><g mask="url(#b)"><path fill="#fff" d="M19 0H2a2 2 0 0 0-2 2v11c0 1.1.9 2 2 2h17a2 2 0 0 0 2-2V2a2 2 0 0 0-2-2"/><path fill="#D00" fill-rule="evenodd" d="M10.5 9c1.38 0 2.5-.67 2.5-1.5S11.88 6 10.5 6 8 6.67 8 7.5 9.12 9 10.5 9m0-.75c.83 0 1.5-.5 1.5-1.12S11.33 6 10.5 6 9 6.5 9 7.13s.67 1.12 1.5 1.12" clip-rule="evenodd"/><path fill="#D00" d="M10.5 8c.28 0 .5-.45.5-1s-.22-1-.5-1-.5.45-.5 1 .22 1 .5 1"/><path fill="#D00" fill-rule="evenodd" d="M0 10h21v5H0z" clip-rule="evenodd"/><path fill="#17A03A" fill-rule="evenodd" d="M0 0h21v5H0z" clip-rule="evenodd"/><path stroke="#000" stroke-opacity=".1" d="M19 .5H2C1.17.5.5 1.17.5 2v11c0 .83.67 1.5 1.5 1.5h17c.83 0 1.5-.67 1.5-1.5V2c0-.83-.67-1.5-1.5-1.5Z"/></g></g><defs><clipPath id="a"><path fill="#fff" d="M0 0h21v15H0z"/></clipPath></defs></svg>