<svg xmlns="http://www.w3.org/2000/svg" width="21" height="15" fill="none"><g clip-path="url(#a)"><mask id="b" width="21" height="15" x="0" y="0" maskUnits="userSpaceOnUse" style="mask-type:alpha"><path fill="#fff" d="M19 0H2a2 2 0 0 0-2 2v11c0 1.1.9 2 2 2h17a2 2 0 0 0 2-2V2a2 2 0 0 0-2-2"/></mask><g mask="url(#b)"><path fill="#009C34" d="M19 0H2a2 2 0 0 0-2 2v11c0 1.1.9 2 2 2h17a2 2 0 0 0 2-2V2a2 2 0 0 0-2-2"/><path fill="#000" fill-rule="evenodd" d="m0 0 10 8-10 7zm21 0L11 8l10 7z" clip-rule="evenodd"/><path fill="#FFD300" fill-rule="evenodd" d="M8.67 7.5 0 1.5V0h1.5l9 6.23 9-6.23H21v1.5l-8.67 6 8.67 6V15h-1.5l-9-6.23-9 6.23H0v-1.5z" clip-rule="evenodd"/><path stroke="#000" stroke-opacity=".1" d="M19 .5H2C1.17.5.5 1.17.5 2v11c0 .83.67 1.5 1.5 1.5h17c.83 0 1.5-.67 1.5-1.5V2c0-.83-.67-1.5-1.5-1.5Z"/></g></g><defs><clipPath id="a"><path fill="#fff" d="M0 0h21v15H0z"/></clipPath></defs></svg>