<svg xmlns="http://www.w3.org/2000/svg" width="21" height="15" fill="none"><g clip-path="url(#a)"><mask id="b" width="21" height="15" x="0" y="0" maskUnits="userSpaceOnUse" style="mask-type:alpha"><path fill="#fff" d="M19 0H2a2 2 0 0 0-2 2v11c0 1.1.9 2 2 2h17a2 2 0 0 0 2-2V2a2 2 0 0 0-2-2"/></mask><g mask="url(#b)"><path fill="#fff" d="M19 0H2a2 2 0 0 0-2 2v11c0 1.1.9 2 2 2h17a2 2 0 0 0 2-2V2a2 2 0 0 0-2-2"/><path fill="#0048AB" fill-rule="evenodd" d="M14 7.5a3.5 3.5 0 1 1-7 0c0-1.12 2.35-1.59 4.33-1.41Q11.63 6 12 6c1.1 0 2 .67 2 1.5" clip-rule="evenodd"/><path fill="#CD0027" fill-rule="evenodd" d="M10 7s.9-1 2-1 2 .67 2 1.5A3.5 3.5 0 0 0 7.34 6C7 7 7 7.3 7 7.5c.5.5 1.06.5 1.5.5s.84-.2 1.12-.5z" clip-rule="evenodd"/><path fill="#252526" fill-rule="evenodd" d="M15 5h2l-2-2h-1zM6 5H4l2-2h1zm9 5h2l-2 2h-1zm-9 0H4l2 2h1z" clip-rule="evenodd"/><path stroke="#000" stroke-opacity=".1" d="M19 .5H2C1.17.5.5 1.17.5 2v11c0 .83.67 1.5 1.5 1.5h17c.83 0 1.5-.67 1.5-1.5V2c0-.83-.67-1.5-1.5-1.5Z"/></g></g><defs><clipPath id="a"><path fill="#fff" d="M0 0h21v15H0z"/></clipPath></defs></svg>