<svg xmlns="http://www.w3.org/2000/svg" width="21" height="15" fill="none"><g clip-path="url(#a)"><mask id="b" width="21" height="15" x="0" y="0" maskUnits="userSpaceOnUse" style="mask-type:alpha"><path fill="#fff" d="M19 0H2a2 2 0 0 0-2 2v11c0 1.1.9 2 2 2h17a2 2 0 0 0 2-2V2a2 2 0 0 0-2-2"/></mask><g mask="url(#b)"><path fill="#00AFCC" d="M19 0H2a2 2 0 0 0-2 2v11c0 1.1.9 2 2 2h17a2 2 0 0 0 2-2V2a2 2 0 0 0-2-2"/><path fill="#DAC21D" fill-rule="evenodd" d="M2 2.5c0-.28.23-.5.5-.5.28 0 .5.22.5.5v2a.5.5 0 0 1-.5.5.5.5 0 0 1-.5-.5zm1 2c0-.28.23-.5.5-.5.28 0 .5.22.5.5v2a.5.5 0 0 1-.5.5.5.5 0 0 1-.5-.5zm0 4c0-.28.23-.5.5-.5.28 0 .5.22.5.5v2a.5.5 0 0 1-.5.5.5.5 0 0 1-.5-.5zm-1 2c0-.28.23-.5.5-.5.28 0 .5.22.5.5v2a.5.5 0 0 1-.5.5.5.5 0 0 1-.5-.5zm0-4c0-.28.23-.5.5-.5.28 0 .5.23.5.5a.5.5 0 0 1-.5.5.5.5 0 0 1-.5-.5m1-4c0-.28.23-.5.5-.5.28 0 .5.23.5.5a.5.5 0 0 1-.5.5.5.5 0 0 1-.5-.5m-1 5c0-.28.23-.5.5-.5.28 0 .5.23.5.5a.5.5 0 0 1-.5.5.5.5 0 0 1-.5-.5m1 5c0-.28.23-.5.5-.5.28 0 .5.23.5.5a.5.5 0 0 1-.5.5.5.5 0 0 1-.5-.5m-1-4c0-.28.23-.5.5-.5.28 0 .5.23.5.5a.5.5 0 0 1-.5.5.5.5 0 0 1-.5-.5" clip-rule="evenodd"/><path fill="#FFC600" d="M11.5 9a2.5 2.5 0 1 0 0-5 2.5 2.5 0 0 0 0 5"/><path fill="#FFC600" fill-rule="evenodd" d="m8 7 1 2 2.5 1L14 9l1-2v3l-3.5 1L8 10z" clip-rule="evenodd"/><path stroke="#000" stroke-opacity=".1" d="M19 .5H2C1.17.5.5 1.17.5 2v11c0 .83.67 1.5 1.5 1.5h17c.83 0 1.5-.67 1.5-1.5V2c0-.83-.67-1.5-1.5-1.5Z"/></g></g><defs><clipPath id="a"><path fill="#fff" d="M0 0h21v15H0z"/></clipPath></defs></svg>