<svg xmlns="http://www.w3.org/2000/svg" width="21" height="15" fill="none"><g clip-path="url(#a)"><mask id="b" width="21" height="15" x="0" y="0" maskUnits="userSpaceOnUse" style="mask-type:alpha"><path fill="#fff" d="M19 0H2a2 2 0 0 0-2 2v11c0 1.1.9 2 2 2h17a2 2 0 0 0 2-2V2a2 2 0 0 0-2-2"/></mask><g mask="url(#b)"><path fill="#D0091E" d="M19 0H2a2 2 0 0 0-2 2v11c0 1.1.9 2 2 2h17a2 2 0 0 0 2-2V2a2 2 0 0 0-2-2"/><path fill="#002781" fill-rule="evenodd" d="M0 0h21v7H0z" clip-rule="evenodd"/><path fill="#947F1E" fill-rule="evenodd" d="M4 5h4v1H4z" clip-rule="evenodd"/><path fill="#FFD923" fill-rule="evenodd" d="M5.01 3.14Q4.54 3.01 4 3c-1 0-1 .5-1 1s1 1 1 1h4s1-.5 1-1 0-1-1-1q-.54.01-1.01.14L7 3a1 1 0 1 0-1.99.14" clip-rule="evenodd"/><path stroke="#000" stroke-opacity=".1" d="M19 .5H2C1.17.5.5 1.17.5 2v11c0 .83.67 1.5 1.5 1.5h17c.83 0 1.5-.67 1.5-1.5V2c0-.83-.67-1.5-1.5-1.5Z"/></g></g><defs><clipPath id="a"><path fill="#fff" d="M0 0h21v15H0z"/></clipPath></defs></svg>