<svg xmlns="http://www.w3.org/2000/svg" width="21" height="15" fill="none"><g clip-path="url(#a)"><mask id="b" width="21" height="15" x="0" y="0" maskUnits="userSpaceOnUse" style="mask-type:alpha"><path fill="#fff" d="M19 0H2a2 2 0 0 0-2 2v11c0 1.1.9 2 2 2h17a2 2 0 0 0 2-2V2a2 2 0 0 0-2-2"/></mask><g mask="url(#b)"><path fill="#FFD300" d="M19 0H2a2 2 0 0 0-2 2v11c0 1.1.9 2 2 2h17a2 2 0 0 0 2-2V2a2 2 0 0 0-2-2"/><path fill="#0042B1" fill-rule="evenodd" d="M0 0h7v15H0z" clip-rule="evenodd"/><path fill="#B17F51" fill-rule="evenodd" d="M8 5h5v5H8zm0 5 2.5 2 2.5-2zm2-6h1v1h-1z" clip-rule="evenodd"/><path fill="#D30021" fill-rule="evenodd" d="M9 6h3v2H9z" clip-rule="evenodd"/><path fill="#0140BE" fill-rule="evenodd" d="M9 8h3v1.5H9zm0 1.5 1.5 1 1.5-1z" clip-rule="evenodd"/><path fill="#FFD300" fill-rule="evenodd" d="M10.5 7c.28 0 .5.21.5.5v1a.5.5 0 0 1-.5.5.5.5 0 0 1-.5-.5v-1c0-.28.23-.5.5-.5" clip-rule="evenodd"/><path fill="#CE0029" fill-rule="evenodd" d="M14 0h7v15h-7z" clip-rule="evenodd"/><path stroke="#000" stroke-opacity=".1" d="M19 .5H2C1.17.5.5 1.17.5 2v11c0 .83.67 1.5 1.5 1.5h17c.83 0 1.5-.67 1.5-1.5V2c0-.83-.67-1.5-1.5-1.5Z"/></g></g><defs><clipPath id="a"><path fill="#fff" d="M0 0h21v15H0z"/></clipPath></defs></svg>