<svg xmlns="http://www.w3.org/2000/svg" width="21" height="15" fill="none"><g clip-path="url(#a)"><path fill="#D4AF2C" d="M19 0H2a2 2 0 0 0-2 2v11c0 1.1.9 2 2 2h17a2 2 0 0 0 2-2V2a2 2 0 0 0-2-2"/><mask id="b" width="19" height="13" x="1" y="1" maskUnits="userSpaceOnUse" style="mask-type:alpha"><path fill="#fff" d="M19 1H2a1 1 0 0 0-1 1v11a1 1 0 0 0 1 1h17a1 1 0 0 0 1-1V2a1 1 0 0 0-1-1"/></mask><g mask="url(#b)"><path fill="#C60000" d="M19 1H2a1 1 0 0 0-1 1v11a1 1 0 0 0 1 1h17a1 1 0 0 0 1-1V2a1 1 0 0 0-1-1"/><path fill="#D5B02B" fill-rule="evenodd" d="M10.5 4.78 9.33 4l-.77.78h.77l-.77.78L7 4.78v3.89l2.33-.78-.77 1.55h-.78l.78.78.77-.78L10.5 11zM11.67 4l.77.78h-.77l.77.78L14 4.78v3.89l-2.33-.78.77 1.55h.78l-.78.78-.77-.78L10.5 11V4.78z" clip-rule="evenodd"/><path fill="#185D93" fill-rule="evenodd" d="M9 6.5a1.5 1.5 0 1 1 3 0v-.34c0 .83-.5 1.96-1.12 2.5L10.5 9l-.38-.34A3.8 3.8 0 0 1 9 6.16z" clip-rule="evenodd"/><path fill="#C58724" fill-rule="evenodd" d="M9 6h3v1H9z" clip-rule="evenodd"/><path stroke="#000" stroke-opacity=".1" d="M19 .5H2C1.17.5.5 1.17.5 2v11c0 .83.67 1.5 1.5 1.5h17c.83 0 1.5-.67 1.5-1.5V2c0-.83-.67-1.5-1.5-1.5Z"/></g></g><defs><clipPath id="a"><path fill="#fff" d="M0 0h21v15H0z"/></clipPath></defs></svg>