<svg xmlns="http://www.w3.org/2000/svg" width="21" height="15" fill="none"><g clip-path="url(#a)"><mask id="b" width="21" height="15" x="0" y="0" maskUnits="userSpaceOnUse" style="mask-type:alpha"><path fill="#fff" d="M19 0H2a2 2 0 0 0-2 2v11c0 1.1.9 2 2 2h17a2 2 0 0 0 2-2V2a2 2 0 0 0-2-2"/></mask><g mask="url(#b)"><path fill="#D40000" d="M19 0H2a2 2 0 0 0-2 2v11c0 1.1.9 2 2 2h17a2 2 0 0 0 2-2V2a2 2 0 0 0-2-2"/><path fill="#FFE800" fill-rule="evenodd" d="m0 0 10 7h1L4 0zm0 15 10-7h1l-7 7z" clip-rule="evenodd"/><path fill="#FFE800" fill-rule="evenodd" d="M11 7h-1l7-7h4zm0 1h-1l7 7h4zM8 7 0 6v3l8-1zm5 0 8-1v3l-8-1zm-3-2L9 0h3l-1 5zm0 5-1 5h3l-1-5" clip-rule="evenodd"/><path fill="#D40000" d="M10.5 10a2.5 2.5 0 1 0 0-5 2.5 2.5 0 0 0 0 5"/><path fill="#FFE800" d="M10.5 9a1.5 1.5 0 1 0 0-3 1.5 1.5 0 0 0 0 3"/><path stroke="#000" stroke-opacity=".1" d="M19 .5H2C1.17.5.5 1.17.5 2v11c0 .83.67 1.5 1.5 1.5h17c.83 0 1.5-.67 1.5-1.5V2c0-.83-.67-1.5-1.5-1.5Z"/></g></g><defs><clipPath id="a"><path fill="#fff" d="M0 0h21v15H0z"/></clipPath></defs></svg>