<svg xmlns="http://www.w3.org/2000/svg" width="21" height="15" fill="none"><g clip-path="url(#a)"><mask id="b" width="21" height="15" x="0" y="0" maskUnits="userSpaceOnUse" style="mask-type:alpha"><path fill="#fff" d="M19 0H2a2 2 0 0 0-2 2v11c0 1.1.9 2 2 2h17a2 2 0 0 0 2-2V2a2 2 0 0 0-2-2"/></mask><g mask="url(#b)"><path fill="#006331" d="M19 0H2a2 2 0 0 0-2 2v11c0 1.1.9 2 2 2h17a2 2 0 0 0 2-2V2a2 2 0 0 0-2-2"/><path fill="#FFC500" fill-rule="evenodd" d="m10.5 7.25-1.47.77.28-1.63-1.19-1.16 1.64-.24.74-1.5.73 1.5 1.65.24-1.2 1.16.29 1.63" clip-rule="evenodd"/><path fill="#FFC500" fill-rule="evenodd" d="M14.97 5.94q.03.27.03.56a4.5 4.5 0 1 1-8.96-.56C6.3 7.67 8.2 9 10.5 9s4.19-1.34 4.47-3.06" clip-rule="evenodd"/><path stroke="#000" stroke-opacity=".1" d="M19 .5H2C1.17.5.5 1.17.5 2v11c0 .83.67 1.5 1.5 1.5h17c.83 0 1.5-.67 1.5-1.5V2c0-.83-.67-1.5-1.5-1.5Z"/></g></g><defs><clipPath id="a"><path fill="#fff" d="M0 0h21v15H0z"/></clipPath></defs></svg>