<svg xmlns="http://www.w3.org/2000/svg" width="13" height="15" fill="none"><g clip-path="url(#a)"><mask id="b" width="21" height="15" x="0" y="0" maskUnits="userSpaceOnUse" style="mask-type:alpha"><path fill="#fff" d="M19 0H2a2 2 0 0 0-2 2v11c0 1.1.9 2 2 2h17a2 2 0 0 0 2-2V2a2 2 0 0 0-2-2"/></mask><g mask="url(#b)"><path fill="#003495" fill-rule="evenodd" d="m0 0 13 8H6l7 7H0z" clip-rule="evenodd"/><path fill="#DF0A37" fill-rule="evenodd" d="m1 2 8 5H3l7 7H2a1 1 0 0 1-1-1z" clip-rule="evenodd"/><path fill="#fff" fill-rule="evenodd" d="M4.92 5q.08.12.08.25c0 .41-.67.75-1.5.75S2 5.66 2 5.25q0-.13.08-.25a3 3 0 0 0 1.42.25A3 3 0 0 0 4.92 5" clip-rule="evenodd"/><path fill="#fff" d="M3.5 13a1.5 1.5 0 1 0 0-3 1.5 1.5 0 0 0 0 3"/><path stroke="#000" stroke-opacity=".1" d="M1.76 1.3C1.06.86.5 1.18.5 2v11c0 .83.67 1.5 1.5 1.5h10l-7-7h6.5z"/></g></g><defs><clipPath id="a"><path fill="#fff" d="M0 0h13v15H0z"/></clipPath></defs></svg>