<svg xmlns="http://www.w3.org/2000/svg" width="21" height="15" fill="none"><g clip-path="url(#a)"><mask id="b" width="21" height="15" x="0" y="0" maskUnits="userSpaceOnUse" style="mask-type:alpha"><path fill="#fff" d="M19 0H2a2 2 0 0 0-2 2v11c0 1.1.9 2 2 2h17a2 2 0 0 0 2-2V2a2 2 0 0 0-2-2"/></mask><g mask="url(#b)"><path fill="#DE0F09" d="M19 0H2a2 2 0 0 0-2 2v11c0 1.1.9 2 2 2h17a2 2 0 0 0 2-2V2a2 2 0 0 0-2-2"/><path fill="#008100" fill-rule="evenodd" d="M6 10h15v5H6z" clip-rule="evenodd"/><path fill="#fff" fill-rule="evenodd" d="M6 0h15v5H6zM4.58 3.9q-.08.13-.2.24A1.5 1.5 0 1 1 2.5 1.82c-.23.42-.04 1.1.47 1.6.51.52 1.19.7 1.6.48" clip-rule="evenodd"/><path fill="#fff" fill-rule="evenodd" d="M2.42 3.9q.08.13.2.24A1.5 1.5 0 1 0 4.5 1.82c.23.42.04 1.1-.47 1.6-.51.52-1.19.7-1.6.48" clip-rule="evenodd"/><path stroke="#000" stroke-opacity=".1" d="M19 .5H2C1.17.5.5 1.17.5 2v11c0 .83.67 1.5 1.5 1.5h17c.83 0 1.5-.67 1.5-1.5V2c0-.83-.67-1.5-1.5-1.5Z"/></g></g><defs><clipPath id="a"><path fill="#fff" d="M0 0h21v15H0z"/></clipPath></defs></svg>