<svg xmlns="http://www.w3.org/2000/svg" width="21" height="15" fill="none"><g clip-path="url(#a)"><mask id="b" width="21" height="15" x="0" y="0" maskUnits="userSpaceOnUse" style="mask-type:alpha"><path fill="#fff" d="M19 0H2a2 2 0 0 0-2 2v11c0 1.1.9 2 2 2h17a2 2 0 0 0 2-2V2a2 2 0 0 0-2-2"/></mask><g mask="url(#b)"><path fill="#fff" d="M19 0H2a2 2 0 0 0-2 2v11c0 1.1.9 2 2 2h17a2 2 0 0 0 2-2V2a2 2 0 0 0-2-2"/><path fill="#005095" fill-rule="evenodd" d="M5.97 4.97C5.91 5.57 5.72 6 5.5 6s-.4-.43-.47-1.03C4.43 4.91 4 4.72 4 4.5s.43-.4 1.03-.47c.06-.6.25-1.03.47-1.03s.4.43.47 1.03c.6.06 1.03.25 1.03.47s-.43.4-1.03.47" clip-rule="evenodd"/><path fill="#D4062E" fill-rule="evenodd" d="M15.97 11.97c-.06.6-.25 1.03-.47 1.03s-.4-.43-.47-1.03c-.6-.06-1.03-.25-1.03-.47s.43-.4 1.03-.47c.06-.6.25-1.03.47-1.03s.4.43.47 1.03c.6.06 1.03.25 1.03.47s-.43.4-1.03.47" clip-rule="evenodd"/><path fill="#005095" fill-rule="evenodd" d="M0 8h10v7H0z" clip-rule="evenodd"/><path fill="#D4062E" fill-rule="evenodd" d="M10 0h11v8H10z" clip-rule="evenodd"/><path stroke="#000" stroke-opacity=".1" d="M19 .5H2C1.17.5.5 1.17.5 2v11c0 .83.67 1.5 1.5 1.5h17c.83 0 1.5-.67 1.5-1.5V2c0-.83-.67-1.5-1.5-1.5Z"/></g></g><defs><clipPath id="a"><path fill="#fff" d="M0 0h21v15H0z"/></clipPath></defs></svg>