<svg xmlns="http://www.w3.org/2000/svg" width="21" height="15" fill="none"><g clip-path="url(#a)"><mask id="b" width="21" height="15" x="0" y="0" maskUnits="userSpaceOnUse" style="mask-type:alpha"><path fill="#fff" d="M19 0H2a2 2 0 0 0-2 2v11c0 1.1.9 2 2 2h17a2 2 0 0 0 2-2V2a2 2 0 0 0-2-2"/></mask><g mask="url(#b)"><path fill="#D0091E" d="M19 0H2a2 2 0 0 0-2 2v11c0 1.1.9 2 2 2h17a2 2 0 0 0 2-2V2a2 2 0 0 0-2-2"/><path fill="#0033AB" fill-rule="evenodd" d="M0 0h21v8H0z" clip-rule="evenodd"/><path fill="#fff" fill-rule="evenodd" d="M0 0v15.03L10 7.5z" clip-rule="evenodd"/><path fill="#FDD200" fill-rule="evenodd" d="M4.49 7.99C5.36 7.93 6 7.74 6 7.5s-.64-.43-1.51-.49C4.43 6.15 4.24 5.5 4 5.5s-.43.64-.48 1.51C2.65 7.07 2 7.27 2 7.5s.65.43 1.52.49c.05.87.25 1.51.48 1.51s.43-.64.49-1.51" clip-rule="evenodd"/><path fill="#FDD200" d="M7.5 8a.5.5 0 1 0 0-1 .5.5 0 0 0 0 1m-5-3a.5.5 0 1 0 0-1 .5.5 0 0 0 0 1m0 6a.5.5 0 1 0 0-1 .5.5 0 0 0 0 1"/><path stroke="#000" stroke-opacity=".1" d="M19 .5H2C1.17.5.5 1.17.5 2v11c0 .83.67 1.5 1.5 1.5h17c.83 0 1.5-.67 1.5-1.5V2c0-.83-.67-1.5-1.5-1.5Z"/></g></g><defs><clipPath id="a"><path fill="#fff" d="M0 0h21v15H0z"/></clipPath></defs></svg>