<svg xmlns="http://www.w3.org/2000/svg" width="21" height="15" fill="none"><g clip-path="url(#a)"><mask id="b" width="21" height="15" x="0" y="0" maskUnits="userSpaceOnUse" style="mask-type:alpha"><path fill="#fff" d="M19 0H2a2 2 0 0 0-2 2v11c0 1.1.9 2 2 2h17a2 2 0 0 0 2-2V2a2 2 0 0 0-2-2"/></mask><g mask="url(#b)"><path fill="#0A4981" d="M19 0H2a2 2 0 0 0-2 2v11c0 1.1.9 2 2 2h17a2 2 0 0 0 2-2V2a2 2 0 0 0-2-2"/><path fill="#fff" fill-rule="evenodd" d="M0 10h21v5H0z" clip-rule="evenodd"/><path fill="#CD3E44" fill-rule="evenodd" d="M0 0h21v5H0zm8 10V5H4v5a2 2 0 1 0 4 0" clip-rule="evenodd"/><path fill="#ECBE34" fill-rule="evenodd" d="M5 5 4 4s1-1 2-1 2 1 2 1L7 5z" clip-rule="evenodd"/><path fill="#fff" fill-rule="evenodd" d="M5 6 4 7l2 1-1 2 1 2 1-2-1-2 2-1-1-1-1 1z" clip-rule="evenodd"/><path fill="#ECBE34" fill-rule="evenodd" d="M5 6H4v1zm2 0h1v1z" clip-rule="evenodd"/><path fill="#A75835" fill-rule="evenodd" d="M6 3 5 4l1 1 1-1z" clip-rule="evenodd"/><path fill="#88605F" fill-rule="evenodd" d="M6 8 4 9h4z" clip-rule="evenodd"/><path stroke="#000" stroke-opacity=".1" d="M19 .5H2C1.17.5.5 1.17.5 2v11c0 .83.67 1.5 1.5 1.5h17c.83 0 1.5-.67 1.5-1.5V2c0-.83-.67-1.5-1.5-1.5Z"/></g></g><defs><clipPath id="a"><path fill="#fff" d="M0 0h21v15H0z"/></clipPath></defs></svg>