<svg xmlns="http://www.w3.org/2000/svg" width="21" height="15" fill="none"><g clip-path="url(#a)"><mask id="b" width="21" height="15" x="0" y="0" maskUnits="userSpaceOnUse" style="mask-type:alpha"><path fill="#fff" d="M19 0H2a2 2 0 0 0-2 2v11c0 1.1.9 2 2 2h17a2 2 0 0 0 2-2V2a2 2 0 0 0-2-2"/></mask><g mask="url(#b)"><path fill="#fff" d="M19 0H2a2 2 0 0 0-2 2v11c0 1.1.9 2 2 2h17a2 2 0 0 0 2-2V2a2 2 0 0 0-2-2"/><path fill="#007100" fill-rule="evenodd" d="M0 10h21v5H0z" clip-rule="evenodd"/><path fill="#F9CA00" fill-rule="evenodd" d="m11.97 7.2.03.3a1.5 1.5 0 1 1-2.97-.3c.14.46.74.8 1.47.8s1.33-.34 1.47-.8M10.5 7a.5.5 0 1 0 0-1 .5.5 0 0 0 0 1" clip-rule="evenodd"/><path fill="#D20200" fill-rule="evenodd" d="M0 0h21v5H0z" clip-rule="evenodd"/><path stroke="#000" stroke-opacity=".1" d="M19 .5H2C1.17.5.5 1.17.5 2v11c0 .83.67 1.5 1.5 1.5h17c.83 0 1.5-.67 1.5-1.5V2c0-.83-.67-1.5-1.5-1.5Z"/></g></g><defs><clipPath id="a"><path fill="#fff" d="M0 0h21v15H0z"/></clipPath></defs></svg>