<svg xmlns="http://www.w3.org/2000/svg" width="21" height="15" fill="none"><g clip-path="url(#a)"><mask id="b" width="21" height="15" x="0" y="0" maskUnits="userSpaceOnUse" style="mask-type:alpha"><path fill="#fff" d="M19 0H2a2 2 0 0 0-2 2v11c0 1.1.9 2 2 2h17a2 2 0 0 0 2-2V2a2 2 0 0 0-2-2"/></mask><g mask="url(#b)"><path fill="#fff" d="M19 0H2a2 2 0 0 0-2 2v11c0 1.1.9 2 2 2h17a2 2 0 0 0 2-2V2a2 2 0 0 0-2-2"/><path fill="#444379" fill-rule="evenodd" d="M0 0h9v7H0z" clip-rule="evenodd"/><path fill="#A7B6E7" fill-rule="evenodd" d="M1 1v1h1V1zm2 0v1h1V1zm2 0v1h1V1zm2 0v1h1V1zM6 2v1h1V2zM4 2v1h1V2zM2 2v1h1V2zM1 3v1h1V3zm2 0v1h1V3zm2 0v1h1V3zm2 0v1h1V3zM1 5v1h1V5zm2 0v1h1V5zm2 0v1h1V5zm2 0v1h1V5zM6 4v1h1V4zM4 4v1h1V4zM2 4v1h1V4z" clip-rule="evenodd"/><path fill="#ED4C49" fill-rule="evenodd" d="M9 0v1h12V0zm0 2v1h12V2zm0 2v1h12V4zm0 2v1h12V6zM0 8v1h21V8zm0 2v1h21v-1zm0 2v1h21v-1zm0 2v1h21v-1z" clip-rule="evenodd"/><path stroke="#000" stroke-opacity=".1" d="M19 .5H2C1.17.5.5 1.17.5 2v11c0 .83.67 1.5 1.5 1.5h17c.83 0 1.5-.67 1.5-1.5V2c0-.83-.67-1.5-1.5-1.5Z"/></g></g><defs><clipPath id="a"><path fill="#fff" d="M0 0h21v15H0z"/></clipPath></defs></svg>