<svg xmlns="http://www.w3.org/2000/svg" width="21" height="15" fill="none"><g clip-path="url(#a)"><mask id="b" width="21" height="15" x="0" y="0" maskUnits="userSpaceOnUse" style="mask-type:alpha"><path fill="#fff" d="M19 0H2a2 2 0 0 0-2 2v11c0 1.1.9 2 2 2h17a2 2 0 0 0 2-2V2a2 2 0 0 0-2-2"/></mask><g mask="url(#b)"><path fill="#fff" d="M19 0H2a2 2 0 0 0-2 2v11c0 1.1.9 2 2 2h17a2 2 0 0 0 2-2V2a2 2 0 0 0-2-2"/><path fill="#005CB2" fill-rule="evenodd" d="M10 3h11v2H10zm0 4h11v2H10zM0 11h21v2H0z" clip-rule="evenodd"/><path fill="#FFEA7B" fill-rule="evenodd" d="M6.88 6.88C6.65 8.13 6.12 9 5.5 9s-1.15-.87-1.38-2.12C2.87 6.65 2 6.12 2 5.5s.87-1.15 2.12-1.38C4.35 2.87 4.88 2 5.5 2s1.15.87 1.38 2.12C8.13 4.35 9 4.88 9 5.5s-.87 1.15-2.12 1.38" clip-rule="evenodd"/><path fill="#FCD715" fill-rule="evenodd" d="M6.19 6.19C6.12 7.79 5.84 9 5.5 9s-.62-1.21-.69-2.81C3.21 6.12 2 5.84 2 5.5s1.21-.62 2.81-.69C4.88 3.21 5.16 2 5.5 2s.62 1.21.69 2.81c1.6.07 2.81.35 2.81.69s-1.21.62-2.81.69" clip-rule="evenodd"/><path fill="#FCD715" d="M5.5 7a1.5 1.5 0 1 0 0-3 1.5 1.5 0 0 0 0 3"/><path stroke="#000" stroke-opacity=".1" d="M19 .5H2C1.17.5.5 1.17.5 2v11c0 .83.67 1.5 1.5 1.5h17c.83 0 1.5-.67 1.5-1.5V2c0-.83-.67-1.5-1.5-1.5Z"/></g></g><defs><clipPath id="a"><path fill="#fff" d="M0 0h21v15H0z"/></clipPath></defs></svg>