<svg xmlns="http://www.w3.org/2000/svg" width="21" height="15" fill="none"><g clip-path="url(#a)"><mask id="b" width="21" height="15" x="0" y="0" maskUnits="userSpaceOnUse" style="mask-type:alpha"><path fill="#fff" d="M19 0H2a2 2 0 0 0-2 2v11c0 1.1.9 2 2 2h17a2 2 0 0 0 2-2V2a2 2 0 0 0-2-2"/></mask><g mask="url(#b)"><path fill="#D4112A" d="M19 0H2a2 2 0 0 0-2 2v11c0 1.1.9 2 2 2h17a2 2 0 0 0 2-2V2a2 2 0 0 0-2-2"/><path fill="#20BD42" fill-rule="evenodd" d="M0 11h21v4H0z" clip-rule="evenodd"/><path fill="#02A3BD" fill-rule="evenodd" d="M0 0h21v4H0z" clip-rule="evenodd"/><path fill="#fff" fill-rule="evenodd" d="M0 5h21v5H0zm5-1.08A1.5 1.5 0 0 1 3 2.5a1.5 1.5 0 0 1 2-1.41 1.5 1.5 0 0 0 0 2.83" clip-rule="evenodd"/><path fill="#78CDDB" fill-rule="evenodd" d="M6 2h1v1H6zm1-1h1v1H7zm1 1h1v1H8zm1-1h1v1H9zm1 1h1v1h-1zM9 3h1v1H9zM7 3h1v1H7z" clip-rule="evenodd"/><path stroke="#000" stroke-opacity=".1" d="M19 .5H2C1.17.5.5 1.17.5 2v11c0 .83.67 1.5 1.5 1.5h17c.83 0 1.5-.67 1.5-1.5V2c0-.83-.67-1.5-1.5-1.5Z"/></g></g><defs><clipPath id="a"><path fill="#fff" d="M0 0h21v15H0z"/></clipPath></defs></svg>