<svg xmlns="http://www.w3.org/2000/svg" width="21" height="15" fill="none"><g clip-path="url(#a)"><mask id="b" width="21" height="15" x="0" y="0" maskUnits="userSpaceOnUse" style="mask-type:alpha"><path fill="#fff" d="M19 0H2a2 2 0 0 0-2 2v11c0 1.1.9 2 2 2h17a2 2 0 0 0 2-2V2a2 2 0 0 0-2-2"/></mask><g mask="url(#b)"><path fill="#2B9300" d="M19 0H2a2 2 0 0 0-2 2v11c0 1.1.9 2 2 2h17a2 2 0 0 0 2-2V2a2 2 0 0 0-2-2"/><path fill="#FFD300" fill-rule="evenodd" d="M0 2h21v11H0z" clip-rule="evenodd"/><path fill="#E11C00" fill-rule="evenodd" d="M0 4h21v7H0z" clip-rule="evenodd"/><path fill="#000" fill-rule="evenodd" d="M0 6h21v3H0z" clip-rule="evenodd"/><path fill="#000" fill-rule="evenodd" d="m1 0 11 7.5L1 15H0V0" clip-rule="evenodd"/><path fill="#fff" fill-rule="evenodd" d="m0 0 11 7.5L0 15z" clip-rule="evenodd"/><path fill="#E11C00" fill-rule="evenodd" d="m4.5 8.75-1.47.77.28-1.63-1.19-1.16 1.65-.24L4.5 5l.74 1.49 1.64.24-1.2 1.16.29 1.63" clip-rule="evenodd"/><path fill="#FFC700" fill-rule="evenodd" d="M3 9h3V8L5 7s0-1-1-1H3l1 1z" clip-rule="evenodd"/><path stroke="#000" stroke-opacity=".1" d="M19 .5H2C1.17.5.5 1.17.5 2v11c0 .83.67 1.5 1.5 1.5h17c.83 0 1.5-.67 1.5-1.5V2c0-.83-.67-1.5-1.5-1.5Z"/></g></g><defs><clipPath id="a"><path fill="#fff" d="M0 0h21v15H0z"/></clipPath></defs></svg>