<svg xmlns="http://www.w3.org/2000/svg" width="32" height="32"><path d="M8.17 8.86c-.43 0-.65-.3-.8-.53s-.24-.32-.4-.32c-.15 0-.23.1-.4.32-.16.22-.37.53-.8.53s-.64-.3-.8-.53-.24-.32-.4-.32-.23.1-.4.32c-.15.22-.37.53-.8.53-.42 0-.64-.3-.8-.53s-.24-.32-.4-.32a.25.25 0 0 1-.25-.25c0-.13.12-.25.25-.25.43 0 .65.31.8.53s.24.32.4.32.24-.09.4-.32c.16-.22.37-.53.8-.53s.65.31.8.53c.17.23.25.32.4.32s.24-.09.4-.32c.16-.22.37-.53.8-.53s.65.31.8.53.25.32.4.32c.14 0 .25.12.25.25q-.01.23-.25.25m0-1.56c-.43 0-.65-.3-.8-.53s-.24-.32-.4-.32c-.15 0-.23.1-.4.32-.16.22-.37.53-.8.53s-.64-.3-.8-.53-.24-.32-.4-.32-.23.1-.4.32c-.15.22-.37.53-.8.53-.42 0-.64-.3-.8-.53s-.24-.32-.4-.32a.25.25 0 0 1-.25-.25c0-.14.12-.25.25-.25.43 0 .65.3.8.53s.24.32.4.32.24-.1.4-.32.37-.53.8-.53.65.3.8.53c.17.23.25.32.4.32s.24-.1.4-.32.37-.53.8-.53.65.3.8.53.25.32.4.32q.23.02.25.25c.02.23-.1.25-.25.25" style="stroke:none;fill-rule:nonzero;fill:#9a2d2f;fill-opacity:1"/><path d="M9.92 3.25a1 1 0 0 0 2 0 1 1 0 0 0-2 0" style="stroke:none;fill-rule:nonzero;fill:#ffeb4d;fill-opacity:1"/><path d="M10.92 4.5a1.25 1.25 0 1 1 0-2.5 1.25 1.25 0 0 1 0 2.5m0-2a.75.75 0 1 0 0 1.5.75.75 0 0 0 0-1.5" style="stroke:none;fill-rule:nonzero;fill:#9a2d2f;fill-opacity:1"/><path d="M23.33 29.72h-8.75L13.02 10h11.87Zm0 0" style="stroke:none;fill-rule:nonzero;fill:#c0fcd0;fill-opacity:1"/><path d="m24.18 24.83.71-8.75H13.02l.71 8.75Zm0 0" style="stroke:none;fill-rule:nonzero;fill:#ffeb4d;fill-opacity:1"/><path d="M25.13 10.02H12.79a.4.4 0 0 1-.4-.4v-.27c0-.46.37-.83.83-.83h11.46c.46 0 .83.37.83.83v.27a.4.4 0 0 1-.39.4" style="stroke:none;fill-rule:nonzero;fill:#dae5ff;fill-opacity:1"/><path d="M23.95 8.53h-10V7.21c0-.51.42-.93.93-.93h8.14c.52 0 .93.42.93.93zm0 0" style="stroke:none;fill-rule:nonzero;fill:#dae5ff;fill-opacity:1"/><path d="M29.64 21.49c-.16 0-.23-.1-.4-.32-.15-.22-.37-.53-.8-.53s-.65.3-.8.53-.24.32-.4.32c-.15 0-.23-.1-.4-.32-.16-.22-.37-.53-.8-.53s-.65.3-.8.53-.24.32-.4.32l-.14-.04.09-1.03h.05c.43 0 .65-.3.8-.53s.24-.32.4-.32.23.1.4.32c.16.23.37.54.8.54s.65-.31.8-.54.25-.32.4-.32.24.1.4.32c.16.23.37.54.8.54.14 0 .25-.12.25-.25a.25.25 0 0 0-.25-.25c-.16 0-.23-.1-.4-.32-.15-.23-.37-.54-.8-.54s-.65.31-.8.54-.24.32-.4.32c-.15 0-.23-.1-.4-.32-.16-.23-.37-.54-.8-.54s-.65.31-.8.54-.24.32-.4.32h-.01l.31-3.8a.3.3 0 0 0-.07-.2.3.3 0 0 0-.18-.08h-.21l.44-5.6c.36 0 .65-.28.65-.64v-.27c0-.6-.49-1.08-1.09-1.08h-.48V7.18c0-.64-.52-1.17-1.17-1.17h.05v-.38a.12.12 0 0 0-.13-.12h-.75a.12.12 0 0 0-.12.12v.38h-7.2c-.65 0-1.17.53-1.17 1.17v1.08h-.48c-.6 0-1.09.48-1.09 1.08v.27c0 .35.29.65.65.65l.44 5.6h-.2a.3.3 0 0 0-.2.07.3.3 0 0 0-.06.2l.72 8.74c0 .13.12.23.25.23h.22l.35 4.4H3a.25.25 0 0 0-.24.25q.01.23.25.25h25.75c.13 0 .25-.11.25-.25a.25.25 0 0 0-.25-.25H23.6l.35-4.4h.23q.2-.02.25-.23l.23-2.9.18.02c.43 0 .65-.31.8-.53s.25-.32.4-.32.24.09.4.32c.16.22.38.53.8.53.44 0 .65-.31.8-.53.17-.23.25-.32.4-.32s.24.09.4.32c.16.22.37.53.8.53q.23-.02.25-.25a.25.25 0 0 0-.25-.25M14.2 7.19c0-.38.3-.68.68-.68h8.14c.38 0 .68.3.68.67v1.08h-9.5zm.26 17.91h8.99l-.35 4.4h-8.3Zm9.49-.5h-9.99l-.67-8.25h11.33Zm.23-8.75H13.73l-.44-5.58h11.33Zm-11.4-6.1a.14.14 0 0 1-.14-.14v-.27c0-.32.26-.58.58-.58h11.46c.33 0 .59.26.59.58v.27q-.02.14-.15.15Zm0 0" style="stroke:none;fill-rule:nonzero;fill:#9a2d2f;fill-opacity:1"/><path d="M11.52 17.75a6 6 0 1 0 0 12 6 6 0 0 0 0-12m0 8a2 2 0 0 1 0-4 2 2 0 0 1 0 4" style="stroke:none;fill-rule:nonzero;fill:#ffacc2;fill-opacity:1"/><path d="M11.52 17.75a6 6 0 0 0-5.86 7.29c.11.45.87.44 1.22.4.6-.05 1.35.53 1.2 1.31s1.1 1.78 2.05.88c.67-.65 1.67-.52 2.37-.2a2.2 2.2 0 0 0 2.55-.5c.49-.52.27-1.34.55-1.9.33-.69 1.1-.03 1.51-.66.16-.23.29-.6.4-.95a6 6 0 0 0-6-5.67m0 8a2 2 0 0 1 0-4 2 2 0 0 1 0 4" style="stroke:none;fill-rule:nonzero;fill:#fff;fill-opacity:1"/><path d="M17.76 23.4v-.01l-.01-.14v-.03l-.02-.12v-.07l-.02-.08a6.2 6.2 0 0 0-4.93-5.32l-.15-.03h-.01l-.14-.03h-.02l-.12-.02h-.04l-.11-.01h-.04l-.11-.01h-.05l-.1-.01h-.17l-.04-.01h-.16a6.26 6.26 0 0 0-6.25 6.41v.2l.02.13v.04l.01.13v.04l.02.12v.05q.02.05.02.11l.01.06.02.1.01.06.02.09.01.04v.01a6.26 6.26 0 0 0 12.35-1.36zM11.52 18h.34l.1.02h.14l.04.01.1.01h.03l.11.02h.03l.12.03h.02l.12.02h.01a5.8 5.8 0 0 1 4.5 4.62v.01l.02.12v.04l.02.1v.06l.01.07.01.08v.05l.01.1v.02q-.18.58-.35.85c-.12.18-.27.2-.55.2-.31 0-.74 0-.98.48-.14.28-.17.58-.2.88-.04.37-.08.73-.3.97-.16.17-1.01.99-2.27.43-.79-.35-1.9-.47-2.65.25a.9.9 0 0 1-1.13.16c-.34-.19-.55-.53-.5-.8q.12-.63-.32-1.12c-.27-.3-.67-.5-1.05-.5l-.1.01c-.42.04-.89-.01-.95-.21v-.05l-.02-.07-.01-.07-.02-.08-.01-.06-.02-.1v-.05l-.02-.1v-.04l-.01-.13v-.03l-.01-.12v-.03l-.01-.12v-.19A5.76 5.76 0 0 1 11.52 18m0 11.5c-2.5 0-4.64-1.6-5.43-3.84q.35.08.8.04a.9.9 0 0 1 .74.32c.13.13.26.37.2.68-.1.5.22 1.05.75 1.35q.35.2.7.19.55 0 1.02-.44c.57-.54 1.46-.43 2.1-.15a2.4 2.4 0 0 0 2.83-.54c.34-.37.39-.84.43-1.26.04-.26.06-.51.16-.7.1-.2.21-.22.52-.22.26 0 .59 0 .85-.26a5.75 5.75 0 0 1-5.67 4.83" style="stroke:none;fill-rule:nonzero;fill:#9a2d2f;fill-opacity:1"/><path d="M11.52 26a2.25 2.25 0 1 0 0-4.5 2.25 2.25 0 0 0 0 4.5m0-4a1.75 1.75 0 1 1 0 3.5 1.75 1.75 0 0 1 0-3.5" style="stroke:none;fill-rule:nonzero;fill:#9a2d2f;fill-opacity:1"/><path d="m9.1 20.7.25-.15" style="stroke:none;fill-rule:nonzero;fill:#ffacc2;fill-opacity:1"/><path d="M9.1 20.95a.2.2 0 0 1-.2-.11.25.25 0 0 1 .07-.35l.24-.15a.26.26 0 0 1 .34.08c.07.12.04.27-.07.34l-.25.15a.2.2 0 0 1-.13.04" style="stroke:none;fill-rule:nonzero;fill:#9a2d2f;fill-opacity:1"/><path d="m7.28 21.04-.04.3" style="stroke:none;fill-rule:nonzero;fill:#ffacc2;fill-opacity:1"/><path d="M7.24 21.59h-.03a.26.26 0 0 1-.22-.29l.05-.3a.24.24 0 0 1 .27-.2c.14.02.23.14.22.27l-.04.3a.25.25 0 0 1-.25.22" style="stroke:none;fill-rule:nonzero;fill:#9a2d2f;fill-opacity:1"/><path d="m6.6 22.9.05.25" style="stroke:none;fill-rule:nonzero;fill:#ffacc2;fill-opacity:1"/><path d="M6.65 23.4a.25.25 0 0 1-.24-.2l-.06-.25a.25.25 0 0 1 .2-.3c.13-.03.27.06.29.2l.05.25a.25.25 0 0 1-.2.3z" style="stroke:none;fill-rule:nonzero;fill:#9a2d2f;fill-opacity:1"/><path d="m7.88 24.32.16.18" style="stroke:none;fill-rule:nonzero;fill:#ffacc2;fill-opacity:1"/><path d="M8.04 24.75a.3.3 0 0 1-.19-.09l-.16-.18a.25.25 0 0 1 .01-.35c.1-.1.26-.09.35.02l.17.18c.1.1.09.26-.01.35a.2.2 0 0 1-.17.07" style="stroke:none;fill-rule:nonzero;fill:#9a2d2f;fill-opacity:1"/><path d="m9.1 26.7-.15.25" style="stroke:none;fill-rule:nonzero;fill:#ffacc2;fill-opacity:1"/><path d="m8.95 27.2-.13-.04a.2.2 0 0 1-.11-.16.2.2 0 0 1 .03-.19l.15-.25a.25.25 0 0 1 .35-.08c.12.07.15.22.08.34l-.16.25a.3.3 0 0 1-.21.13m2.39-7.86h-.23a.25.25 0 0 1-.25-.25q.01-.23.25-.25h.23q.23.01.25.25-.02.23-.25.25" style="stroke:none;fill-rule:nonzero;fill:#9a2d2f;fill-opacity:1"/><path d="m13.46 19.76.26.13" style="stroke:none;fill-rule:nonzero;fill:#fff;fill-opacity:1"/><path d="M13.72 20.14q-.06 0-.1-.03l-.27-.12a.25.25 0 0 1-.11-.34.24.24 0 0 1 .33-.11l.26.12q.16.1.13.29a.24.24 0 0 1-.24.19" style="stroke:none;fill-rule:nonzero;fill:#9a2d2f;fill-opacity:1"/><path d="m12.87 21.34.18.1" style="stroke:none;fill-rule:nonzero;fill:#fff;fill-opacity:1"/><path d="m13.05 21.7-.12-.04-.19-.1a.26.26 0 0 1-.09-.35.25.25 0 0 1 .34-.09l.19.11q.15.1.12.28a.25.25 0 0 1-.25.19" style="stroke:none;fill-rule:nonzero;fill:#9a2d2f;fill-opacity:1"/><path d="m15.28 22.18.3.2" style="stroke:none;fill-rule:nonzero;fill:#fff;fill-opacity:1"/><path d="M15.59 22.63a.2.2 0 0 1-.14-.04l-.3-.2a.3.3 0 0 1-.11-.16.25.25 0 0 1 .39-.25l.3.2a.25.25 0 0 1-.14.45" style="stroke:none;fill-rule:nonzero;fill:#9a2d2f;fill-opacity:1"/><path d="m14.9 24.25-.15.32" style="stroke:none;fill-rule:nonzero;fill:#fff;fill-opacity:1"/><path d="M14.75 24.82q-.06 0-.1-.03a.25.25 0 0 1-.13-.33l.16-.32c.05-.12.2-.18.33-.12.12.06.17.2.12.33l-.15.33a.3.3 0 0 1-.23.14m-1.7 1.89h-.29a.25.25 0 0 1-.25-.25c0-.14.12-.25.25-.25h.3q.23.02.24.25-.01.23-.25.25" style="stroke:none;fill-rule:nonzero;fill:#9a2d2f;fill-opacity:1"/><path d="M13.23 8.76a.6.6 0 0 0-.59.58v.27q.02.14.15.15h1.64q.02-.2.13-.5.13-.33.42-.5Zm.97-1.58v1.08h1.78q.47-.2.91-.64c.34-.37.4-.77.36-1.11h-2.37c-.37 0-.68.3-.68.67m.15 4.14c.12-.5.11-.8.1-1.05h-1.16l.39 4.96c.77-1.16.47-3.03.67-3.91" style="stroke:none;fill-rule:nonzero;fill:#fff;fill-opacity:1"/></svg>