<svg xmlns="http://www.w3.org/2000/svg" width="20" height="20" fill="none"><path fill="currentColor" fill-rule="evenodd" d="M10 1.67v4.21q-.01.54.04.98c.04.32.15.68.45.99s.67.4.98.45q.44.04.98.03h4.22v5c0 2.36 0 3.54-.74 4.27-.73.73-1.9.73-4.26.73H8.33c-2.35 0-3.53 0-4.26-.73-.74-.73-.74-1.91-.74-4.27V6.67c0-2.36 0-3.54.74-4.27.73-.73 1.9-.73 4.26-.73zm1.67 0v4.16c0 .42 0 .65.02.8v.01c.17.02.4.03.81.03h4.16c0-.35-.03-.57-.12-.78a4 4 0 0 0-.85-1.03l-2.21-2.22c-.49-.48-.73-.72-1.03-.85a2 2 0 0 0-.78-.12m-5 9.16c0-.46.37-.83.83-.83h5a.83.83 0 1 1 0 1.67h-5a.83.83 0 0 1-.83-.84m.83 2.5a.83.83 0 1 0 0 1.67h3.33a.83.83 0 1 0 0-1.67z" clip-rule="evenodd"/></svg>