<svg xmlns="http://www.w3.org/2000/svg" width="16" height="12" fill="none"><path fill="currentColor" d="M5.4.02a3.6 3.6 0 0 0-3.2 3.04q-.03.25 0 .63l.02.5v.12l-.24.08a2.9 2.9 0 0 0-1.9 1.98 3 3 0 0 0 0 1.4c.28 1 1.05 1.76 2.1 2.05.22.06.3.07 2.03.08H6v-.97H4.33c-1.88 0-1.89 0-2.32-.22-.58-.3-.97-.87-1.01-1.52-.06-.85.5-1.63 1.35-1.89.09-.03.36-.1.61-.14l.47-.12c.01-.01-.03-.25-.1-.54a3 3 0 0 1-.1-1.44 2.6 2.6 0 0 1 3.22-2.01q.76.2 1.28.72c.16.18.32.4.66.93l.16.24.48-.22c.52-.24.83-.33 1.13-.33.33 0 .56.05.87.2.46.22.82.61.99 1.1.05.18.07.3.08.86l.01.66.7.01c.6.02.71.03.87.08q1.01.37 1.27 1.33a1.84 1.84 0 0 1-1.4 2.25l-.18.04v.49l-.01.5.13-.03a2.9 2.9 0 0 0 2.44-2.1c.06-.22.07-.34.07-.7 0-.47-.03-.63-.19-1.04a2.9 2.9 0 0 0-2.46-1.78l-.23-.02-.04-.3a2.8 2.8 0 0 0-.8-1.66 2.8 2.8 0 0 0-1.98-.85 3 3 0 0 0-1.17.18c-.18.07-.2.08-.23.03-.2-.3-.62-.73-.94-.97a5 5 0 0 0-1.02-.5A4 4 0 0 0 5.4.02"/><path fill="currentColor" d="M8.74 5.04c-.14.1-.14.12-.14 1.8 0 1.39 0 1.56-.05 1.61-.08.13-.18.15-.8.15h-.57l-.09.08c-.08.07-.09.1-.09.2 0 .12.03.17 1.13 1.57.63.8 1.17 1.47 1.21 1.5q.2.12.37-.06c.17-.16 2.26-2.85 2.28-2.92a.3.3 0 0 0-.1-.31c-.07-.06-.11-.06-.65-.06-.48 0-.6-.01-.68-.05-.18-.08-.18-.05-.18-1.8v-1.6l-.08-.08-.08-.08h-.7c-.62 0-.72 0-.78.04"/></svg>