<svg xmlns="http://www.w3.org/2000/svg" width="24" height="25" fill="none"><mask id="a" width="18" height="19" x="3" y="3" maskUnits="userSpaceOnUse" style="mask-type:alpha"><path fill="#000" d="M3 11.5c0-3.77 0-5.66 1.17-6.83S7.23 3.5 11 3.5h2c3.77 0 5.66 0 6.83 1.17S21 7.73 21 11.5v2c0 3.77 0 5.66-1.17 6.83S16.77 21.5 13 21.5h-2c-3.77 0-5.66 0-6.83-1.17S3 17.27 3 13.5z"/></mask><g mask="url(#a)"><path fill="#00A3F4" stroke="#0D1415" stroke-linecap="round" stroke-width="1.2" d="M12.9 15.29 4.3 5.84q-.32-.33-.77-.34c-1.31 0-2.3-1.2-2.04-2.49l.4-2A3.75 3.75 0 0 1 5.57-2h8.72c3.86 0 5.8 0 6.97 1.2 1.18 1.22 1.13 3.15 1.03 7L22 17.5l-3.82-3.19-.42-.32a2 2 0 0 0-2.78.58 6 6 0 0 0-.39.73 1 1 0 0 1-1.49.2z"/></g><path stroke="#0D1415" stroke-width="1.2" d="M3 13.5v-2c0-3.77 0-5.66 1.17-6.83S7.23 3.5 11 3.5h2c3.77 0 5.66 0 6.83 1.17S21 7.73 21 11.5v2c0 3.77 0 5.66-1.17 6.83S16.77 21.5 13 21.5h-1"/><circle cx="16.5" cy="8" r="1.5" fill="#0D1415"/><path fill="#0D1415" d="M8 16.5v-.6h.6v.6zm-4.63 4.47a.6.6 0 1 1-.74-.94zm4.03.53v-5h1.2v5zm.6-4.4H3v-1.2h5zm.37-.13-5 4-.74-.94 5-4z"/></svg>