<svg xmlns="http://www.w3.org/2000/svg" width="21" height="15" fill="none"><g clip-path="url(#a)"><mask id="b" width="21" height="15" x="0" y="0" maskUnits="userSpaceOnUse" style="mask-type:alpha"><path fill="#fff" d="M19 0H2a2 2 0 0 0-2 2v11c0 1.1.9 2 2 2h17a2 2 0 0 0 2-2V2a2 2 0 0 0-2-2"/></mask><g mask="url(#b)"><path fill="#FFE100" d="M19 0H2a2 2 0 0 0-2 2v11c0 1.1.9 2 2 2h17a2 2 0 0 0 2-2V2a2 2 0 0 0-2-2"/><path fill="#0006AB" fill-rule="evenodd" d="M0 0h7v15H0z" clip-rule="evenodd"/><path fill="#D20636" fill-rule="evenodd" d="M14 0h7v15h-7z" clip-rule="evenodd"/><path fill="#C8B47C" fill-rule="evenodd" d="M11.94 9.94A1.5 1.5 0 0 0 13 8.5v-3c0-.83-.67-1.5-1.5-1.5h-2C8.67 4 8 4.67 8 5.5v3c0 .68.45 1.25 1.06 1.44a1.5 1.5 0 0 0 2.87 0" clip-rule="evenodd"/><path fill="#D20636" fill-rule="evenodd" d="M9 5h1v1.5H9zm2 2h1v1.5h-1z" clip-rule="evenodd"/><path fill="#FFE100" fill-rule="evenodd" d="M11 5h1v1.5h-1zM9 7h1v1.5H9z" clip-rule="evenodd"/><path stroke="#000" stroke-opacity=".1" d="M19 .5H2C1.17.5.5 1.17.5 2v11c0 .83.67 1.5 1.5 1.5h17c.83 0 1.5-.67 1.5-1.5V2c0-.83-.67-1.5-1.5-1.5Z"/></g></g><defs><clipPath id="a"><path fill="#fff" d="M0 0h21v15H0z"/></clipPath></defs></svg>