<svg xmlns="http://www.w3.org/2000/svg" width="21" height="15" fill="none"><g clip-path="url(#a)"><mask id="b" width="21" height="15" x="0" y="0" maskUnits="userSpaceOnUse" style="mask-type:alpha"><path fill="#fff" d="M19 0H2a2 2 0 0 0-2 2v11c0 1.1.9 2 2 2h17a2 2 0 0 0 2-2V2a2 2 0 0 0-2-2"/></mask><g mask="url(#b)"><path fill="#003D89" d="M19 0H2a2 2 0 0 0-2 2v11c0 1.1.9 2 2 2h17a2 2 0 0 0 2-2V2a2 2 0 0 0-2-2"/><path fill="#fff" d="M10.5 12a4.5 4.5 0 1 0 0-9 4.5 4.5 0 0 0 0 9"/><path fill="#CBCBCB" fill-rule="evenodd" d="M8.5 8h4v1h-4z" clip-rule="evenodd"/><path fill="#5E9F47" fill-rule="evenodd" d="M8 5h1v1H8zm2-1h1v1h-1zm2 1h1v1h-1zm1 2h1v1h-1zm-1 2h1v1h-1z" clip-rule="evenodd"/><path fill="#580A00" fill-rule="evenodd" d="M11 6h1v1h-1z" clip-rule="evenodd"/><path fill="#B54B00" fill-rule="evenodd" d="M11 7h1v1h-1z" clip-rule="evenodd"/><path fill="#BD6100" fill-rule="evenodd" d="M9 6h1v1H9z" clip-rule="evenodd"/><path fill="#F9B626" fill-rule="evenodd" d="M9 7h1v1H9z" clip-rule="evenodd"/><path fill="#5E9F47" fill-rule="evenodd" d="M10 10h1v1h-1zM8 9h1v1H8zM7 7h1v1H7z" clip-rule="evenodd"/><path fill="#D0091E" fill-rule="evenodd" d="M0 13h21v2H0zM0 0h21v2H0z" clip-rule="evenodd"/><path stroke="#000" stroke-opacity=".1" d="M19 .5H2C1.17.5.5 1.17.5 2v11c0 .83.67 1.5 1.5 1.5h17c.83 0 1.5-.67 1.5-1.5V2c0-.83-.67-1.5-1.5-1.5Z"/></g></g><defs><clipPath id="a"><path fill="#fff" d="M0 0h21v15H0z"/></clipPath></defs></svg>