<svg xmlns="http://www.w3.org/2000/svg" width="21" height="15" fill="none"><g clip-path="url(#a)"><mask id="b" width="21" height="15" x="0" y="0" maskUnits="userSpaceOnUse" style="mask-type:alpha"><path fill="#fff" d="M19 0H2a2 2 0 0 0-2 2v11c0 1.1.9 2 2 2h17a2 2 0 0 0 2-2V2a2 2 0 0 0-2-2"/></mask><g mask="url(#b)"><path fill="#72B1DF" d="M19 0H2a2 2 0 0 0-2 2v11c0 1.1.9 2 2 2h17a2 2 0 0 0 2-2V2a2 2 0 0 0-2-2"/><path fill="#fff" fill-rule="evenodd" d="M10 4h-.5a.5.5 0 0 0-.5.5c0 .27.22.5.5.5h.5v.5c0 .29.22.5.5.5a.5.5 0 0 0 .5-.5V5h.5a.5.5 0 0 0 .5-.5.5.5 0 0 0-.5-.5H11v-.5a.5.5 0 0 0-.5-.5.5.5 0 0 0-.5.5zm4 3h-.5a.5.5 0 0 0-.5.5c0 .27.22.5.5.5h.5v.5c0 .29.22.5.5.5a.5.5 0 0 0 .5-.5V8h.5a.5.5 0 0 0 .5-.5.5.5 0 0 0-.5-.5H15v-.5a.5.5 0 0 0-.5-.5.5.5 0 0 0-.5.5zm-4 3h-.5a.5.5 0 0 0-.5.5c0 .27.22.5.5.5h.5v.5c0 .29.22.5.5.5a.5.5 0 0 0 .5-.5V11h.5a.5.5 0 0 0 .5-.5.5.5 0 0 0-.5-.5H11v-.5a.5.5 0 0 0-.5-.5.5.5 0 0 0-.5.5zM6 7h-.5a.5.5 0 0 0-.5.5c0 .27.22.5.5.5H6v.5c0 .29.22.5.5.5a.5.5 0 0 0 .5-.5V8h.5a.5.5 0 0 0 .5-.5.5.5 0 0 0-.5-.5H7v-.5a.5.5 0 0 0-.5-.5.5.5 0 0 0-.5.5z" clip-rule="evenodd"/><path stroke="#000" stroke-opacity=".1" d="M19 .5H2C1.17.5.5 1.17.5 2v11c0 .83.67 1.5 1.5 1.5h17c.83 0 1.5-.67 1.5-1.5V2c0-.83-.67-1.5-1.5-1.5Z"/></g></g><defs><clipPath id="a"><path fill="#fff" d="M0 0h21v15H0z"/></clipPath></defs></svg>