<svg xmlns="http://www.w3.org/2000/svg" width="21" height="15" fill="none"><g clip-path="url(#a)"><mask id="b" width="21" height="15" x="0" y="0" maskUnits="userSpaceOnUse" style="mask-type:alpha"><path fill="#fff" d="M19 0H2a2 2 0 0 0-2 2v11c0 1.1.9 2 2 2h17a2 2 0 0 0 2-2V2a2 2 0 0 0-2-2"/></mask><g mask="url(#b)"><path fill="#000" d="M19 0H2a2 2 0 0 0-2 2v11c0 1.1.9 2 2 2h17a2 2 0 0 0 2-2V2a2 2 0 0 0-2-2"/><path fill="#fff" fill-rule="evenodd" d="M0 10h21v1H0z" clip-rule="evenodd"/><path fill="#006700" fill-rule="evenodd" d="M0 11h21v4H0z" clip-rule="evenodd"/><path fill="#BD0000" fill-rule="evenodd" d="M0 5h21v5H0z" clip-rule="evenodd"/><path fill="#fff" fill-rule="evenodd" d="M0 4h21v1H0z" clip-rule="evenodd"/><path fill="#fff" fill-rule="evenodd" d="M12.41 5.91c.08 0 .5-.67.5-1.5 0-.82-.42-1.5-.5-1.5-.07 0-.5.68-.5 1.5 0 .83.43 1.5.5 1.5m-2.94-.44c-.05.06-.83-.11-1.4-.7-.6-.59-.77-1.37-.72-1.42s.83.12 1.42.71c.58.59.76 1.37.7 1.42m1.88 4.54c.05-.05.83.11 1.42.66.58.55.76 1.28.7 1.32-.04.05-.82-.11-1.41-.66s-.76-1.28-.7-1.32m-1.88 0c-.05-.05-.83.11-1.4.66-.6.55-.77 1.28-.72 1.32s.83-.11 1.42-.66c.58-.55.76-1.28.7-1.32" clip-rule="evenodd"/><path fill="#BD0000" fill-rule="evenodd" d="M10.5 12c.36 0 2.5-2.02 2.5-4.5C13 5.01 10.86 3 10.5 3S8 5.01 8 7.5c0 2.48 2.14 4.5 2.5 4.5" clip-rule="evenodd"/><path fill="#000" fill-rule="evenodd" d="M8.5 9c.07 0 .5-.67.5-1.5S8.57 6 8.5 6 8 6.67 8 7.5 8.43 9 8.5 9m4 0c.07 0 .5-.67.5-1.5S12.57 6 12.5 6s-.5.67-.5 1.5.43 1.5.5 1.5" clip-rule="evenodd"/><path fill="#fff" d="M11 7.5c0-.83-.22-1.5-.5-1.5s-.5.67-.5 1.5.22 1.5.5 1.5.5-.67.5-1.5"/><path stroke="#000" stroke-opacity=".1" d="M19 .5H2C1.17.5.5 1.17.5 2v11c0 .83.67 1.5 1.5 1.5h17c.83 0 1.5-.67 1.5-1.5V2c0-.83-.67-1.5-1.5-1.5Z"/></g></g><defs><clipPath id="a"><path fill="#fff" d="M0 0h21v15H0z"/></clipPath></defs></svg>