<svg xmlns="http://www.w3.org/2000/svg" width="21" height="15" fill="none"><g clip-path="url(#a)"><mask id="b" width="21" height="15" x="0" y="0" maskUnits="userSpaceOnUse" style="mask-type:alpha"><path fill="#fff" d="M19 0H2a2 2 0 0 0-2 2v11c0 1.1.9 2 2 2h17a2 2 0 0 0 2-2V2a2 2 0 0 0-2-2"/></mask><g mask="url(#b)"><path fill="#EB0624" d="M19 0H2a2 2 0 0 0-2 2v11c0 1.1.9 2 2 2h17a2 2 0 0 0 2-2V2a2 2 0 0 0-2-2"/><path fill="#FFF100" fill-rule="evenodd" d="M10.2 9.49a3 3 0 0 0 .6 0l-.3-.74zm-1.35-.55A2.2 2.2 0 0 1 8 7.25c0-.8.46-1.49 1.14-1.89L10 7.5zm3-3.58A2.2 2.2 0 0 1 13 7.25c0 .67-.33 1.28-.85 1.69L11 7.5zm-.1-.06a2.7 2.7 0 0 0-2.5 0l1.25 1.57z" clip-rule="evenodd"/><path fill="#FFF100" fill-rule="evenodd" d="M10.5 12a4.5 4.5 0 1 0 0-9 4.5 4.5 0 0 0 0 9m0-1a3.5 3.5 0 1 0 0-7 3.5 3.5 0 0 0 0 7" clip-rule="evenodd"/><path stroke="#000" stroke-opacity=".1" d="M19 .5H2C1.17.5.5 1.17.5 2v11c0 .83.67 1.5 1.5 1.5h17c.83 0 1.5-.67 1.5-1.5V2c0-.83-.67-1.5-1.5-1.5Z"/></g></g><defs><clipPath id="a"><path fill="#fff" d="M0 0h21v15H0z"/></clipPath></defs></svg>