<svg xmlns="http://www.w3.org/2000/svg" width="21" height="15" fill="none"><g clip-path="url(#a)"><mask id="b" width="21" height="15" x="0" y="0" maskUnits="userSpaceOnUse" style="mask-type:alpha"><path fill="#fff" d="M19 0H2a2 2 0 0 0-2 2v11c0 1.1.9 2 2 2h17a2 2 0 0 0 2-2V2a2 2 0 0 0-2-2"/></mask><g mask="url(#b)"><path fill="#E3001A" d="M19 0H2a2 2 0 0 0-2 2v11c0 1.1.9 2 2 2h17a2 2 0 0 0 2-2V2a2 2 0 0 0-2-2"/><path fill="#fff" fill-rule="evenodd" d="M8 5h.5L9 6H8zm1 1h1v1H9zM8 7h1v1H8zM7 8h1v1H7zm0 1h1v1H7zm-.5 0H7v1H6zM9 8h2v2H9zm4-3h-.5L12 6h1zm-1 1h-1v1h1zm1 1h-1v1h1zm1 1h-1v1h1zm0 1h-1v1h1zm.5 0H14v1h1zM12 8h-1v2h1z" clip-rule="evenodd"/><path fill="#F5DDE0" fill-rule="evenodd" d="M9 7h1v1H9zM8 8h1v2H8zm0-2h1v1H8zm-.5 1H8v1H7zM12 7h-1v1h1zm1 1h-1v2h1zm0-2h-1v1h1zm.5 1H13v1h1zM11 6h-1v2h1z" clip-rule="evenodd"/><path fill="#B4B4B4" fill-rule="evenodd" d="M10 5h1v1h-1z" clip-rule="evenodd"/><path fill="#0028A4" fill-rule="evenodd" d="M0 0h21v4H0zm0 11h21v4H0z" clip-rule="evenodd"/><path stroke="#000" stroke-opacity=".1" d="M19 .5H2C1.17.5.5 1.17.5 2v11c0 .83.67 1.5 1.5 1.5h17c.83 0 1.5-.67 1.5-1.5V2c0-.83-.67-1.5-1.5-1.5Z"/></g></g><defs><clipPath id="a"><path fill="#fff" d="M0 0h21v15H0z"/></clipPath></defs></svg>