<svg xmlns="http://www.w3.org/2000/svg" width="21" height="15" fill="none"><g clip-path="url(#a)"><mask id="b" width="21" height="15" x="0" y="0" maskUnits="userSpaceOnUse" style="mask-type:alpha"><path fill="#fff" d="M19 0H2a2 2 0 0 0-2 2v11c0 1.1.9 2 2 2h17a2 2 0 0 0 2-2V2a2 2 0 0 0-2-2"/></mask><g mask="url(#b)"><path fill="#004DA4" d="M19 0H2a2 2 0 0 0-2 2v11c0 1.1.9 2 2 2h17a2 2 0 0 0 2-2V2a2 2 0 0 0-2-2"/><path fill="#fff" fill-rule="evenodd" d="M0 3h21v1H0z" clip-rule="evenodd"/><path fill="#F0161B" fill-rule="evenodd" d="M0 4h21v7H0z" clip-rule="evenodd"/><path fill="#fff" d="M5.5 10a2.5 2.5 0 1 0 0-5 2.5 2.5 0 0 0 0 5"/><path fill="#F0161B" fill-rule="evenodd" d="m5.5 8.48-1.2.63.23-1.34-.97-.94 1.34-.2.6-1.21.6 1.21 1.34.2-.97.94.23 1.34" clip-rule="evenodd"/><path fill="#fff" fill-rule="evenodd" d="M0 11h21v1H0z" clip-rule="evenodd"/><path stroke="#000" stroke-opacity=".1" d="M19 .5H2C1.17.5.5 1.17.5 2v11c0 .83.67 1.5 1.5 1.5h17c.83 0 1.5-.67 1.5-1.5V2c0-.83-.67-1.5-1.5-1.5Z"/></g></g><defs><clipPath id="a"><path fill="#fff" d="M0 0h21v15H0z"/></clipPath></defs></svg>