<svg xmlns="http://www.w3.org/2000/svg" width="21" height="15" fill="none"><g clip-path="url(#a)"><mask id="b" width="21" height="15" x="0" y="0" maskUnits="userSpaceOnUse" style="mask-type:alpha"><path fill="#fff" d="M19 0H2a2 2 0 0 0-2 2v11c0 1.1.9 2 2 2h17a2 2 0 0 0 2-2V2a2 2 0 0 0-2-2"/></mask><g mask="url(#b)"><path fill="#FFBF00" d="M19 0H2a2 2 0 0 0-2 2v11c0 1.1.9 2 2 2h17a2 2 0 0 0 2-2V2a2 2 0 0 0-2-2"/><path fill="#00614A" fill-rule="evenodd" d="M2 2h3v11H2z" clip-rule="evenodd"/><path fill="#F60" fill-rule="evenodd" d="M5 2h3v11H5z" clip-rule="evenodd"/><path fill="#98232E" fill-rule="evenodd" d="M9 2h10v11H9z" clip-rule="evenodd"/><path fill="#FFB700" fill-rule="evenodd" d="m12.54 10.62.05-.05.03.05c.03.06.12.05.18 0l.05-.05.04.04q.1.09.2 0c.05-.04.05-.04.08 0l.1.04c.09.01.09.01.13-.08.04-.07.05-.1.04-.18l-.02-.17c0-.09 0-.09.1-.13l.13-.07.14-.22-.1-.03q-.28-.04-.1-.43a3 3 0 0 0 .36-1.23c.04.1-.04.54-.16.85l-.05.13.04-.01.35-.2c.45-.27.6-.32.9-.3.24 0 .35.07.52.31.09.13.18.22.34.35.34.29.36.31.37.65s.01.36-.18.41q-.25.08-.3.3-.02.12.1 0l.06-.05.03.06q.06.1.17 0l.05-.05.05.05c.07.08.18.06.2-.04q0-.03.05.02c.06.06.2.09.21.04q.01-.04-.02-.1a1 1 0 0 1-.11-.34c0-.12.03-.18.13-.28.13-.13.17-.28.08-.28q-.1-.01-.16-.2c-.08-.23-.07-.5.05-.93a2.5 2.5 0 0 0 .09-1.25l-.11-.27-.07-.12.09-.1c.26-.3.2-.77-.11-.96-.1-.06-.13-.06-.3-.06-.1 0-.26.02-.35.04s-.24.04-.35.04c-.17 0-.2 0-.26-.05-.07-.05-.08-.07-.1-.18q0-.04-.02-.05c-.02-.01-.13.11-.14.17q-.01.03-.04-.01l-.05-.13q-.04-.16.1-.25l.08-.04-.04-.04c-.1-.07-.25-.02-.3.1l-.04.06-.07-.07c-.11-.15-.07-.37.08-.44q.14-.05.17.06c.03.11.1-.03.09-.17q-.02-.1.03-.09c.07 0 .2.11.25.2s.04.26-.01.38l-.04.1.05-.02a.3.3 0 0 0 .2-.17.5.5 0 0 0 .01-.34q-.06-.13.02-.07.14.06.18.2c.03.08.03.1.02.2l-.06.15q-.04.07 0 .06c.04 0 .13-.05.16-.1l.05-.13.03-.08.03.06q.05.15.2.23t.08 0c-.03-.03-.1-.27-.08-.3.01-.01.15.12.3.3s.22.23.35.23c.17 0 .27-.2.2-.38-.05-.1-.15-.12-.2-.03q-.05.06-.03.12.02.07-.03.06-.07 0-.31-.27a3 3 0 0 0-.8-.61 1.3 1.3 0 0 0-.6-.05 1 1 0 0 0-.45.3c-.18.22-.18.53 0 .8l.04.09-.03.07a.4.4 0 0 0 .01.34l.06.08.01-.06q0-.14.08-.17c.05-.03.08-.02.28.1.22.1.57.11.95.01.18-.05.4-.04.5.01.17.1.21.35.08.55-.05.08-.1.11-.29.18-.14.05-.17.05-.48.05-.27 0-.37 0-.47.03a2 2 0 0 1-.54.03l-.4-.02.04.05.08.07q.05.03-.02.05l-.13.03h-.08l-.01.09v.13q0 .05-.02.03l-.1-.04-.13-.05q-.06-.05-.07 0l-.17.18-.02-.06-.04-.19-.08-.18-.02.1q-.01.09-.05.16l-.03.07-.03-.06q-.04-.12-.08-.14l-.02.05c0 .05-.1.2-.12.2q-.02 0-.02-.09t-.02-.1l-.02.03c0 .04-.08.17-.1.17q-.03 0-.05.03-.05.07-.04-.01L13 7.21l-.03-.1q0-.02-.1.01-.15.07-.08-.02l.07-.15q.02-.1.05-.12t0 .04l-.03.08-.03.1-.02.07.09-.05.08-.05v.05l.02.15.02.1.05-.04c.06-.03.11-.15.11-.25q0-.06.03.01l.03.12.02.1.04-.06.06-.14q.04-.14.04-.06c0 .04.1.2.1.18q.03-.01.04-.13.05-.2.09-.2v.03l.05.2.06.2q.01.06.09-.04l.08-.11q0-.05.04 0c.05.04.22.11.24.1v-.14l.01-.12.05.02h.13l.07-.02-.07-.06-.08-.1q-.01-.03-.08-.04c-.1-.01-.28-.15-.28-.21q0-.02.05.04.12.14.25.14h.06l-.04-.07-.05-.17c0-.1-.01-.11-.09-.18l-.12-.14-.04-.06-.03.07q0 .07-.03.08l-.05-.06-.05-.05-.04.09-.03.09-.03-.05-.08-.11-.03-.06q.03 0 .08.07l.05.08.03-.06V6.1q0-.09.02-.03l.07.1.06.06.03-.09q.04-.12.06-.04c.02.08.18.25.32.36q.03.02-.03-.17l-.02-.13q.02-.07-.07-.15c-.08-.08-.1-.14-.12-.28l-.03-.13q-.02-.05-.02.09l-.01.19-.02.06-.02-.05-.09-.12q-.06-.05-.05-.07l.08.07q.09.09.09.04c.01-.03 0-.18-.02-.29q-.02-.08.04.01.05.06.07.2c.02.14.03.16.12.26l.1.1.02-.35c0-.37 0-.45-.07-.57l-.04-.05.06-.08a1 1 0 0 0 .11-.29l.02-.09-.06.08q-.07.08-.14.07-.07.01-.11-.06l-.2-.16q-.05-.01-.05.02l-.03.12-.04.09-.07-.1a.4.4 0 0 0-.14-.12q-.13-.07-.11.07 0 .23-.14.08c-.07-.08-.12-.1-.25-.08l-.1.02.02.06q.02.06-.03.12a.2.2 0 0 1-.22.14l-.13.03-.14.04-.13.02q-.02.03-.02-.07.02-.18-.14-.2c-.12 0-.17.15-.12.34l.02.12q.01.07.13.22l.13.2.08.08.05.04v-.08q-.02-.12.04-.04.01.05.07.08.05.06.04 0l.02-.09.02-.06.03.09.13.23c.1.15.16.33.13.37h-.12l-.16-.03q-.09.02-.02-.06t-.05-.07c-.08 0-.3-.05-.38-.1q-.1-.07-.12.07l-.05.19-.02.1.09-.01q.07-.01.13-.04h.06l-.03.08-.03.08.05-.01.1-.05c.05-.03.05-.02.09.05q.06.14.08-.01 0-.15.08.05t.1.1q0-.05.05-.1.08-.07.12.05.04.11-.18.28-.47.38-.54 1.02c-.05.4.1.8.38 1.09.14.14.36.28.35.23-.06-.24-.06-.7 0-.77v.1c-.06.26-.03.47.09.95.11.44.1.62-.06.74-.05.04-.09.05-.22.05-.15 0-.17 0-.21.05a1 1 0 0 0-.1.28q-.01.06.1-.01zm-1.12-.8.02-.1q0-.05.08-.06l.08-.01-.05-.06q-.1-.1-.02-.11c.06 0 .15-.08.16-.13v-.08q-.08-.06-.1.01-.02.09-.08 0c-.06-.08-.06-.24 0-.34.03-.05.03-.05-.01-.1s-.07-.15-.05-.18l.07.02q.07.03.09 0c.06-.06 0-.14-.1-.12q-.06 0-.06-.03-.01-.04-.08-.06-.08-.04-.06.04 0 .1-.09.04-.07-.05-.09.05 0 .1.13.08.09.01 0 .14l-.04.07.04.06c.04.1.04.25-.02.33l-.04.06-.02-.05q-.08-.1-.1 0-.03.06.04.13.05.05.1.06.08.02-.01.12l-.05.05.07.01q.07 0 .08.04c0 .04.05.16.06.16zm.25-2.17c.16-.1.18-.35.02-.41q-.09-.04-.13.04c-.02.05 0 .13.02.13q.02 0 .02.03c0 .09-.26.13-.36.06-.04-.03-.05-.1-.02-.1.02 0 .04-.06.03-.1q-.04-.1-.13-.06c-.16.05-.15.3 0 .4.13.08.42.08.55 0m-.1-.2-.02-.04q-.05-.06.01-.16c.03-.04.03-.11.04-.82.02-1.23.09-2.15.18-2.37q.06-.13-.06 0-.17.15-.3.45c-.15.38-.2.9-.2 1.98 0 .62 0 .7.03.76q.04.07.01.14-.02.06-.01.08c.03.04.28.03.32-.02" clip-rule="evenodd"/><path fill="#DA8210" fill-rule="evenodd" d="M10 3h1v1h-1zm7 0h1v1h-1zm-7 8h1v1h-1zm7 0h1v1h-1z" clip-rule="evenodd"/><path stroke="#000" stroke-opacity=".1" d="M19 .5H2C1.17.5.5 1.17.5 2v11c0 .83.67 1.5 1.5 1.5h17c.83 0 1.5-.67 1.5-1.5V2c0-.83-.67-1.5-1.5-1.5Z"/></g></g><defs><clipPath id="a"><path fill="#fff" d="M0 0h21v15H0z"/></clipPath></defs></svg>