<svg xmlns="http://www.w3.org/2000/svg" width="21" height="15" fill="none"><g clip-path="url(#a)"><mask id="b" width="21" height="15" x="0" y="0" maskUnits="userSpaceOnUse" style="mask-type:alpha"><path fill="#fff" d="M19 0H2a2 2 0 0 0-2 2v11c0 1.1.9 2 2 2h17a2 2 0 0 0 2-2V2a2 2 0 0 0-2-2"/></mask><g mask="url(#b)"><path fill="#004F99" d="M19 0H2a2 2 0 0 0-2 2v11c0 1.1.9 2 2 2h17a2 2 0 0 0 2-2V2a2 2 0 0 0-2-2"/><path fill="#C62429" fill-rule="evenodd" d="M0 0h7v15H0z" clip-rule="evenodd"/><path fill="#FAD000" fill-rule="evenodd" d="M2 7h1v4H2zm3 0h1v4H5z" clip-rule="evenodd"/><path fill="#FAD000" d="M4 11a1 1 0 1 0 0-2 1 1 0 0 0 0 2m0-3a1 1 0 1 0 0-2 1 1 0 0 0 0 2"/><path fill="#FAD000" fill-rule="evenodd" d="m4 3 1 2H3z" clip-rule="evenodd"/><path fill="#C62429" fill-rule="evenodd" d="M14 0h7v15h-7z" clip-rule="evenodd"/><path stroke="#000" stroke-opacity=".1" d="M19 .5H2C1.17.5.5 1.17.5 2v11c0 .83.67 1.5 1.5 1.5h17c.83 0 1.5-.67 1.5-1.5V2c0-.83-.67-1.5-1.5-1.5Z"/></g></g><defs><clipPath id="a"><path fill="#fff" d="M0 0h21v15H0z"/></clipPath></defs></svg>