<svg xmlns="http://www.w3.org/2000/svg" width="21" height="15" fill="none"><g clip-path="url(#a)"><mask id="b" width="21" height="15" x="0" y="0" maskUnits="userSpaceOnUse" style="mask-type:alpha"><path fill="#fff" d="M19 0H2a2 2 0 0 0-2 2v11c0 1.1.9 2 2 2h17a2 2 0 0 0 2-2V2a2 2 0 0 0-2-2"/></mask><g mask="url(#b)"><path fill="#fff" d="M19 0H2a2 2 0 0 0-2 2v11c0 1.1.9 2 2 2h17a2 2 0 0 0 2-2V2a2 2 0 0 0-2-2"/><path fill="#406421" fill-rule="evenodd" d="M13 7.5a2.5 2.5 0 1 0-5 0 2.5 2.5 0 0 0 5 0M10.5 9c.83 0 1.5-.9 1.5-2s-.67-2-1.5-2S9 5.9 9 7s.67 2 1.5 2" clip-rule="evenodd"/><path fill="#D5B852" d="M10.5 8c.28 0 .5-.45.5-1s-.22-1-.5-1-.5.45-.5 1 .22 1 .5 1"/><path fill="#006946" fill-rule="evenodd" d="M0 0h7v15H0z" clip-rule="evenodd"/><path fill="#D0091E" fill-rule="evenodd" d="M14 0h7v15h-7z" clip-rule="evenodd"/><path stroke="#000" stroke-opacity=".1" d="M19 .5H2C1.17.5.5 1.17.5 2v11c0 .83.67 1.5 1.5 1.5h17c.83 0 1.5-.67 1.5-1.5V2c0-.83-.67-1.5-1.5-1.5Z"/></g></g><defs><clipPath id="a"><path fill="#fff" d="M0 0h21v15H0z"/></clipPath></defs></svg>