<svg xmlns="http://www.w3.org/2000/svg" width="21" height="15" fill="none"><g clip-path="url(#a)"><mask id="b" width="21" height="15" x="0" y="0" maskUnits="userSpaceOnUse" style="mask-type:alpha"><path fill="#fff" d="M19 0H2a2 2 0 0 0-2 2v11c0 1.1.9 2 2 2h17a2 2 0 0 0 2-2V2a2 2 0 0 0-2-2"/></mask><g mask="url(#b)"><path fill="#000" d="M19 0H2a2 2 0 0 0-2 2v11c0 1.1.9 2 2 2h17a2 2 0 0 0 2-2V2a2 2 0 0 0-2-2"/><path fill="#FDE300" fill-rule="evenodd" d="M0 10h21v5H0z" clip-rule="evenodd"/><path fill="#007168" fill-rule="evenodd" d="M0 0h21v5H0z" clip-rule="evenodd"/><path fill="#fff" fill-rule="evenodd" d="M0 4h21v1H0zm0 6h21v1H0z" clip-rule="evenodd"/><path fill="#D4062E" fill-rule="evenodd" d="M0 0v15.03L10 7.5z" clip-rule="evenodd"/><path fill="#FDE300" fill-rule="evenodd" d="m3.38 8.75-1.47.77.28-1.63L1 6.73l1.64-.24L3.38 5l.73 1.49 1.64.24-1.18 1.16.28 1.63" clip-rule="evenodd"/><path fill="#000" fill-rule="evenodd" d="m2.28 6.38.35-.35 2.12 2.12-.35.36z" clip-rule="evenodd"/><path fill="#000" fill-rule="evenodd" d="m4.76 6.38-.36-.35-2.12 2.12.35.36z" clip-rule="evenodd"/><path stroke="#000" stroke-opacity=".1" d="M19 .5H2C1.17.5.5 1.17.5 2v11c0 .83.67 1.5 1.5 1.5h17c.83 0 1.5-.67 1.5-1.5V2c0-.83-.67-1.5-1.5-1.5Z"/></g></g><defs><clipPath id="a"><path fill="#fff" d="M0 0h21v15H0z"/></clipPath></defs></svg>