<svg xmlns="http://www.w3.org/2000/svg" width="21" height="15" fill="none"><g clip-path="url(#a)"><mask id="b" width="21" height="15" x="0" y="0" maskUnits="userSpaceOnUse" style="mask-type:alpha"><path fill="#fff" d="M19 0H2a2 2 0 0 0-2 2v11c0 1.1.9 2 2 2h17a2 2 0 0 0 2-2V2a2 2 0 0 0-2-2"/></mask><g mask="url(#b)"><path fill="#D0091E" d="M19 0H2a2 2 0 0 0-2 2v11c0 1.1.9 2 2 2h17a2 2 0 0 0 2-2V2a2 2 0 0 0-2-2"/><path fill="#FDD200" fill-rule="evenodd" d="m12 3 2 2s-2-1-3 0l-1 1h3l5 3-2-3h2s0-1-1-2-2-1-2-1V2l-1 1z" clip-rule="evenodd"/><path fill="#000" fill-rule="evenodd" d="m0 0 21 15H0z" clip-rule="evenodd"/><path fill="#fff" d="M5.5 8a.5.5 0 1 0 0-1 .5.5 0 0 0 0 1m-2 2a.5.5 0 1 0 0-1 .5.5 0 0 0 0 1m4 0a.5.5 0 1 0 0-1 .5.5 0 0 0 0 1m-2 3a.5.5 0 1 0 0-1 .5.5 0 0 0 0 1"/><path fill="#C7C7C7" d="M6.5 12a.5.5 0 1 0 0-1 .5.5 0 0 0 0 1"/><path stroke="#000" stroke-opacity=".1" d="M19 .5H2C1.17.5.5 1.17.5 2v11c0 .83.67 1.5 1.5 1.5h17c.83 0 1.5-.67 1.5-1.5V2c0-.83-.67-1.5-1.5-1.5Z"/></g></g><defs><clipPath id="a"><path fill="#fff" d="M0 0h21v15H0z"/></clipPath></defs></svg>