<svg xmlns="http://www.w3.org/2000/svg" width="21" height="15" fill="none"><g clip-path="url(#a)"><mask id="b" width="21" height="15" x="0" y="0" maskUnits="userSpaceOnUse" style="mask-type:alpha"><path fill="#fff" d="M19 0H2a2 2 0 0 0-2 2v11c0 1.1.9 2 2 2h17a2 2 0 0 0 2-2V2a2 2 0 0 0-2-2"/></mask><g mask="url(#b)"><path fill="red" d="M19 0H2a2 2 0 0 0-2 2v11c0 1.1.9 2 2 2h17a2 2 0 0 0 2-2V2a2 2 0 0 0-2-2"/><path fill="#006700" fill-rule="evenodd" d="M0 0h7v15H0z" clip-rule="evenodd"/><path fill="#FF0" d="M7 10a3 3 0 1 0 0-6 3 3 0 0 0 0 6"/><path fill="red" fill-rule="evenodd" d="M9 8V5H5v3c0 .55.9 1 2 1s2-.45 2-1" clip-rule="evenodd"/><path fill="#fff" fill-rule="evenodd" d="M6 6h2v2H6z" clip-rule="evenodd"/><path fill="#002E9C" fill-rule="evenodd" d="M6 6h1v1H6zm1 1h1v1H7z" clip-rule="evenodd"/><path stroke="#000" stroke-opacity=".1" d="M19 .5H2C1.17.5.5 1.17.5 2v11c0 .83.67 1.5 1.5 1.5h17c.83 0 1.5-.67 1.5-1.5V2c0-.83-.67-1.5-1.5-1.5Z"/></g></g><defs><clipPath id="a"><path fill="#fff" d="M0 0h21v15H0z"/></clipPath></defs></svg>