<svg xmlns="http://www.w3.org/2000/svg" width="21" height="15" fill="none"><g clip-path="url(#a)"><mask id="b" width="21" height="15" x="0" y="0" maskUnits="userSpaceOnUse" style="mask-type:alpha"><path fill="#fff" d="M19 0H2a2 2 0 0 0-2 2v11c0 1.1.9 2 2 2h17a2 2 0 0 0 2-2V2a2 2 0 0 0-2-2"/></mask><g mask="url(#b)"><path fill="#00773C" d="M19 0H2a2 2 0 0 0-2 2v11c0 1.1.9 2 2 2h17a2 2 0 0 0 2-2V2a2 2 0 0 0-2-2"/><path fill="#fff" fill-rule="evenodd" d="M16 10V9H5l2 1h6c0 .55.67 1 1.5 1s1.5-.45 1.5-1M8.73 3.9l-.05.03a.4.4 0 0 0-.17.27c0 .07-.01.07.03.12q.05.08.14 0l.07-.09c.01-.08-.09.04-.1-.05s.04-.12.1-.2q0-.06-.02-.07m1 .01q-.03 0-.07.09c-.03.06-.13.16-.05.35q.1.2.05.54l-.1.15c-.08.09-.16.06-.22.03-.06-.04-.11-.06-.14-.18 0-.2.02-.54-.02-.6-.05-.11-.14-.08-.18-.04a1.4 1.4 0 0 0-.33.68c-.05.16-.1.11-.14.05-.1-.1-.1-.77-.21-.66-.18.51.1 1.08.3 1.02.14.06.23-.2.28-.5q.06-.13.1-.05c-.01.39.02.48.12.6.23.17.41.02.43 0l.17-.17q.07-.06.15 0c.05.04.05.12.16.18.1.04.3.01.35-.07l.1-.2c.06-.05.13-.02.13 0s-.05.06-.02.12q.07.04.1 0c.12-.04.2-.3.2-.3q-.01-.1-.08-.06c-.04.03-.04.04-.09.06s-.16.05-.22-.03c-.05-.1-.05-.24-.1-.34 0-.01-.07-.16 0-.17.03 0 .1.03.12-.04.04-.06-.08-.23-.15-.31q-.11-.11-.25 0c-.06.05-.05.11-.07.18a.3.3 0 0 0 .06.25c.06.12.18.28.14.5 0 0-.07.1-.18.09-.05-.01-.13-.03-.17-.34-.03-.23 0-.56-.1-.71q-.01-.1-.06-.11m-.31.03q-.05 0-.1.1l-.04.32c-.02.08.08.12.13.01.07-.19.07-.27.07-.34q0-.1-.06-.1m1.17.02q-.05 0-.07.07 0 .13.02.25c0 .06.1.16.14.22q.3.4.59.83.04.3.06.62c.03.45.04 1 .01 1.48.09 0 .22-.13.27-.34.03-.28 0-.86-.01-1.02l-.01-.24q.33.54.64 1.15c.07-.03.06-.46.01-.52-.16-.36-.4-.72-.47-.85l-.22-.35-.06-.48c-.04-.24.1.03.08-.11-.04-.24-.18-.4-.33-.62-.05-.07-.05-.09-.13.02q-.05.15-.03.27l-.08-.1-.26-.22q-.06-.06-.15-.06m3.47.03q-.02-.01-.05.04a.2.2 0 0 0-.07.16l.04.38.01.05-.03-.04c-.25-.26.11-.04-.05-.24-.13-.15-.17-.2-.29-.29-.06-.03-.1-.1-.11.02q-.02.17-.01.32.01.1.1.2l.5.64q.03.67.08 1.33c0 .2-.07.46-.12.48 0 0-.1.05-.15 0-.04-.02-.21-.28-.21-.28q-.13-.1-.2 0c-.18.16-.26.47-.37.68-.03.05-.11.09-.2 0-.24-.33-.1-.79-.13-.67-.21.24-.12.63-.07.72.07.14.12.23.26.3.12.08.22.03.27-.04.12-.12.13-.45.18-.52.04-.12.15-.1.2-.04q.07.1.17.15.19.16.4.03.13-.07.2-.26c.06-.15.03-.97.02-1.43l.26.38q.05.6.04 1.17c-.01.07.26-.23.26-.37v-.34l.38.64c.07-.04.05-.46 0-.52-.12-.21-.29-.44-.41-.62l-.08-.56c-.02-.13-.04-.32-.08-.47l-.03-.26c.02-.04.07 0 .1-.04.04-.05-.14-.52-.24-.66q-.06-.09-.16.06c-.07.07-.05.21-.02.35q.1.54.18 1.1l-.31-.46-.02-.07-.02-.36q-.01-.05.02-.03l.05.03q.06 0 .04-.1l-.3-.53q0-.02-.03-.02M5.1 4Q5 4 5 4.1c-.01.03.1.15.13.22.02.04-.02.2.02.2.03.02.08-.1.1-.2.01-.07 0-.27-.14-.31zm10.22 0-.05.07a.6.6 0 0 0-.05.4c.13.88.23 1.75.25 2.53-.01.08-.01.12-.05.21-.08.1-.16.23-.24.29s-.25.12-.31.16c-.18.1-.18.22-.04.23.25-.03.55-.05.75-.36.05-.08.12-.32.12-.46.02-.83-.01-1.64-.14-2.25 0-.06-.03-.19-.02-.2.01-.05.1 0 .12-.05.05-.04-.2-.37-.3-.5Q15.35 4 15.32 4m-2.6.02-.05.05q-.11.34-.07.56c.18.93.36 1.77.33 2.66.09 0 .19-.2.23-.39.02-.26-.02-.43-.02-.58-.01-.16-.18-1.42-.21-1.53-.05-.22.16-.03.14-.16-.07-.16-.25-.4-.3-.54q-.03-.07-.05-.07m-6.33.02-.05.05-.01.06q-.03.01-.05-.05l-.02-.05h-.03l-.02.02-.01.04q0 .03-.02.03h-.03l-.02-.03v-.05l-.04-.02c-.06 0-.07.08-.06.1 0 .02-.01.15.08.19.12.06.35.03.34-.16v-.1zm1.62 0-.1.03c-.09.08-.1.2-.04.28.06.03.12.09.08.12-.17.19-.63.5-.65.55v.01c.03.02.31.02.34 0 .1-.04.56-.56.56-.56l-.07-.06q-.03-.03 0-.07c.12-.06.08-.21.02-.28zm4.25 0-.05.07a1 1 0 0 0-.08.39c.11.82.15 1.54.23 2.36 0 .08 0 .19-.06.24-.2.2-.48.45-.78.57-.04.03.08.19.23.19.25-.03.46-.17.67-.54a1 1 0 0 0 .15-.4 9 9 0 0 0-.17-2.09V4.7c.03-.02.08 0 .1-.05.05-.04-.1-.4-.2-.54q-.01-.05-.04-.06m-6.58.03q-.05 0-.08.07v.38q.08.3.11.61c.01.3-.16.13-.16-.01.04-.2.03-.49 0-.56q-.04-.12-.13-.08c-.06 0-.2.15-.24.4 0 0-.04.14-.05.26-.02.13-.1.23-.17-.02-.05-.18-.09-.62-.17-.52-.03.35-.06.95.23 1.01.36.04.16-.6.29-.7.02-.06.07-.06.07 0v.54c0 .18.11.23.2.27q.14-.03.19.08l.05.93s.2.06.22-.52c0-.34-.07-.63-.02-.7 0-.06.08-.07.14-.04.1.07.13.15.28.12q.34-.09.35-.34a1 1 0 0 0-.1-.48c.01-.02-.04-.1-.03-.13q.08.09.11 0-.05-.2-.19-.29c-.07-.07-.19-.05-.23.09-.02.16.06.36.18.52q.06.1.05.25-.1.05-.18-.03s-.18-.13-.18-.16c.05-.3.01-.33-.01-.41-.02-.12-.07-.15-.12-.23q-.07-.08-.13 0c-.08.13-.04.42.02.55.04.12.1.19.07.19q-.04.09-.11-.03c-.05-.16-.06-.4-.06-.5-.02-.13-.03-.42-.12-.49q-.04-.04-.08-.04m1.24 0-.06.02c-.07.02-.14.08-.12.2l.23 1.5c.02.07-.04.15-.1.14-.12-.08-.15-.24-.35-.23-.14 0-.3.16-.32.3a1 1 0 0 0 0 .36c.1.12.22.11.32.08.09-.03.16-.12.2-.1.01.04 0 .32-.42.53-.25.12-.45.14-.56-.06-.06-.13 0-.62-.15-.5-.5 1.25 1.13 1.42 1.31.05q.03-.07.08-.07l.02.05c-.04 1.24-1.26 1.33-1.46.93-.05-.09-.07-.3-.07-.42q-.02-.1-.05-.13c-.05-.04-.12.06-.13.23-.02.13-.02.17-.02.3.07.98 1.63.56 1.89-.25.13-.42 0-.74.04-.78h.01c.16.17.37.02.42-.04q.04-.06.11 0c.12.08.33.04.38-.12q.04-.22.05-.46-.12.03-.17.07l-.01.02-.02.13v.01l-.02.02q-.06.02-.08-.04c-.04-.17-.2-.19-.28.08-.07.05-.18.06-.2-.02q.03-.25-.2-.12l-.13-1.04c.06 0 .11.04.17-.03a2 2 0 0 0-.26-.59l-.01-.01-.01-.01zm4.84 0c-.06 0-.13.04-.1.11-.02.05.13.2.16.27.04.12-.04.24 0 .25.05.02.1-.12.13-.25.02-.11-.05-.33-.16-.38zm-3.77.13q.05 0 .08.06.02.07-.02.08-.05.01-.09-.05-.01-.07.02-.09zm7 .18q-.11 0-.1.13c-.01.04.12.2.15.29.02.06-.03.25 0 .27.04.02.1-.14.12-.28 0-.08-.05-.36-.15-.4zm-3.87.1.01.07.03.15-.1-.13c-.1-.12 0-.08.06-.1m.89.44q-.03 0-.05.05l-.01.06q-.03.01-.05-.05l-.02-.05h-.02q-.02 0-.03.02l-.01.04q0 .03-.02.03h-.03l-.01-.03-.01-.05-.03-.02c-.07 0-.07.08-.07.1 0 .01 0 .15.08.19.13.05.35.03.34-.17v-.09q-.02-.04-.06-.03m-4.07.04-.06.01c-.1.06-.14.23-.08.33s.16.06.18.06c.1.02.16-.2.16-.2s0-.05-.12.06q-.06 0-.07-.04a.3.3 0 0 1 0-.17q.02-.05-.02-.05m5.75.02q-.1 0-.14.12l.02.12q0 .04-.1.01c.02-.01-.03-.08-.03-.08q-.08-.03-.15.03a.2.2 0 0 0-.02.19c.07.12.3.34.42.34l.02-.36q-.01-.06.04-.08c.04-.01.1.03.1 0-.01-.08-.02-.19-.06-.24a.1.1 0 0 0-.1-.05m-4.76.4-.06.06c-.06.06-.06.1-.06.22l.18.47q.1.3.07.64a1.6 1.6 0 0 1-.64.67q-.21.05-.27 0a.2.2 0 0 1-.07-.16c.2-.15.45-.27.64-.67.06-.15.08-.24.02-.48l-.11-.22c.04-.02.13.05.15 0a1 1 0 0 0-.19-.33q-.12-.1-.23-.02c-.07.05-.09.2-.05.34.04.1.15.12.23.33 0 0 .03.15-.01.2a2 2 0 0 1-.49.46v-.06l.02-.23c-.14.09-.2.37-.22.45-.35.24-.75.42-.98.67-.12.19.83-.22.94-.27.02.03.02.11.09.18.1.14.3.22.5.17.35-.13.55-.36.75-.62q.05-.07.11-.04c.14.3.54.53 1.05.55.12-.14.06-.21.02-.24-.02-.01-.26-.1-.3-.2q-.02-.13.15-.22.5-.05.97-.19c0-.1.06-.26.1-.33l.06-.06v-.01l-.05-.03h-1.05l-.03-.02v-.01l.03-.03c.25-.03.7-.1.72-.53q.02-.35-.37-.41c-.2.01-.34.2-.32.42 0 .06.02.17-.04.18-.38.04-.8.28-.82.46h-.02q-.05-.02-.05-.11c-.02-.3-.11-.64-.27-.9q-.07-.08-.1-.08m1 .16-.04.05-.01.06q-.03.02-.05-.05l-.02-.04-.02-.01q-.02 0-.03.02l-.01.04q0 .03-.02.03h-.03l-.02-.03v-.05l-.03-.01c-.07 0-.07.07-.07.1 0 0 0 .14.08.18.12.06.41.02.34-.17v-.09q-.03-.05-.06-.03M14 5.7l-.58.4c-.06.06-.03.23 0 .21.04.02.6-.37.6-.41.02 0 .03-.2-.02-.2m-3.53.06.08.02q.07.04.06.09v.01q-.04.03-.11 0-.07-.05-.07-.1v-.01h.01zm-4.92.1c-.29 0-.72.38-.73.59l.92-.44c-.05-.08 0-.15-.19-.15m.94.13q.05 0 .08.05a.1.1 0 0 1-.02.1h-.09q-.04 0-.07-.03 0-.05.03-.1zm7.4.11q-.1.01-.08.14c-.01.04.07.2.1.29.02.06-.03.23.01.25s.14-.1.14-.26c0-.08-.03-.37-.13-.41zm-6.29.3q-.09 0-.07.09c0 .04.13.1.14.2.02.05-.03.2 0 .21.05.02.1-.1.11-.2.01-.06-.04-.26-.14-.3zm1.88.25c.12.03.3.04.44.05.13.01.19.1.07.15s-.22.07-.22.23v.14h-.01v.01h-.01l-.1-.03c-.07-.05-.26-.17-.3-.43q0-.1.12-.12m-4.6.2-.03.05c-.18.27-.2.69-.1.8a.2.2 0 0 0 .2.07c.1-.04.16-.26.13-.34q-.06-.1-.1-.02c-.08.15-.11.05-.12-.04q0-.25.03-.44zm5.9.36-.04.01s-.12.08-.16.14q-.03.03-.01.07.03.05.08 0 .08 0 .07.1t.01.1s.05.04.1.01c.12-.04.2-.09.36-.12.05 0 .04-.12-.03-.12a.4.4 0 0 0-.26.08q-.07 0-.07-.06c-.02-.07.03-.12.02-.18zm3.78.14-.08.01q-.05 0-.06.07c0 .06.05.06.09.09q.04.04 0 .1l-.11.1q-.04.06.03.1c.1.02.35-.13.35-.14q.04-.06.02-.08-.05-.03-.11-.02c-.02 0-.07 0-.05-.05l.05-.09q.02-.05-.06-.08zm-1.45 3.86.79.02c.04.04.02.12 0 .13h-.25v-.01c-.02-.06-.17-.06-.2-.01h-.01v.02h-.34c-.04-.05-.03-.13 0-.15" clip-rule="evenodd"/><path stroke="#000" stroke-opacity=".1" d="M19 .5H2C1.17.5.5 1.17.5 2v11c0 .83.67 1.5 1.5 1.5h17c.83 0 1.5-.67 1.5-1.5V2c0-.83-.67-1.5-1.5-1.5Z"/></g></g><defs><clipPath id="a"><path fill="#fff" d="M0 0h21v15H0z"/></clipPath></defs></svg>