<svg xmlns="http://www.w3.org/2000/svg" width="21" height="15" fill="none"><g clip-path="url(#a)"><mask id="b" width="21" height="15" x="0" y="0" maskUnits="userSpaceOnUse" style="mask-type:alpha"><path fill="#fff" d="M19 0H2a2 2 0 0 0-2 2v11c0 1.1.9 2 2 2h17a2 2 0 0 0 2-2V2a2 2 0 0 0-2-2"/></mask><g mask="url(#b)"><path fill="#025BC2" d="M19 0H2a2 2 0 0 0-2 2v11c0 1.1.9 2 2 2h17a2 2 0 0 0 2-2V2a2 2 0 0 0-2-2"/><path fill="#FCD715" fill-rule="evenodd" d="M0 15h21V0z" clip-rule="evenodd"/><path fill="#24663A" fill-rule="evenodd" d="M2 15h19V2z" clip-rule="evenodd"/><path fill="#fff" fill-rule="evenodd" d="M5.12 5.66 4.5 6l.12-.72-.5-.52.7-.1.3-.66.31.66.7.1-.5.52.11.72zm-2-2L2.5 4l.12-.72-.5-.52.7-.1.3-.66.31.66.7.1-.5.52.11.72zm4 0L6.5 4l.12-.72-.5-.52.7-.1.3-.66.31.66.7.1-.5.52.11.72zm0 4L6.5 8l.12-.72-.5-.52.7-.1.3-.66.31.66.7.1-.5.52.11.72zm-4 0L2.5 8l.12-.72-.5-.52.7-.1.3-.66.31.66.7.1-.5.52.11.72z" clip-rule="evenodd"/><path stroke="#000" stroke-opacity=".1" d="M19 .5H2C1.17.5.5 1.17.5 2v11c0 .83.67 1.5 1.5 1.5h17c.83 0 1.5-.67 1.5-1.5V2c0-.83-.67-1.5-1.5-1.5Z"/></g></g><defs><clipPath id="a"><path fill="#fff" d="M0 0h21v15H0z"/></clipPath></defs></svg>