<svg xmlns="http://www.w3.org/2000/svg" width="21" height="15" fill="none"><g clip-path="url(#a)"><mask id="b" width="21" height="15" x="0" y="0" maskUnits="userSpaceOnUse" style="mask-type:alpha"><path fill="#fff" d="M19 0H2a2 2 0 0 0-2 2v11c0 1.1.9 2 2 2h17a2 2 0 0 0 2-2V2a2 2 0 0 0-2-2"/></mask><g mask="url(#b)"><path fill="#0268AE" d="M19 0H2a2 2 0 0 0-2 2v11c0 1.1.9 2 2 2h17a2 2 0 0 0 2-2V2a2 2 0 0 0-2-2"/><path fill="#EF1F28" fill-rule="evenodd" d="M0 10h21v5H0z" clip-rule="evenodd"/><path fill="#fff" fill-rule="evenodd" d="M0 0h21v5H0z" clip-rule="evenodd"/><path fill="#EF1F28" d="M6.5 3h-2a1 1 0 0 0-1 1v2.5a1 1 0 0 0 1 1h2a1 1 0 0 0 1-1V4a1 1 0 0 0-1-1"/><path fill="#0268AE" d="M6 3H5a1 1 0 0 0-1 1v2a1 1 0 0 0 1 1h1a1 1 0 0 0 1-1V4a1 1 0 0 0-1-1"/><path fill="#FFE200" fill-rule="evenodd" d="M5 4h1v1H5z" clip-rule="evenodd"/><path fill="#fff" fill-rule="evenodd" d="m4 6 1.5-.5L7 6 6 7H5z" clip-rule="evenodd"/><path stroke="#000" stroke-opacity=".1" d="M19 .5H2C1.17.5.5 1.17.5 2v11c0 .83.67 1.5 1.5 1.5h17c.83 0 1.5-.67 1.5-1.5V2c0-.83-.67-1.5-1.5-1.5Z"/></g></g><defs><clipPath id="a"><path fill="#fff" d="M0 0h21v15H0z"/></clipPath></defs></svg>