<svg xmlns="http://www.w3.org/2000/svg" width="21" height="15" fill="none"><g clip-path="url(#a)"><mask id="b" width="21" height="15" x="0" y="0" maskUnits="userSpaceOnUse" style="mask-type:alpha"><path fill="#fff" d="M19 0H2a2 2 0 0 0-2 2v11c0 1.1.9 2 2 2h17a2 2 0 0 0 2-2V2a2 2 0 0 0-2-2"/></mask><g mask="url(#b)"><path fill="#0A58AC" d="M19 0H2a2 2 0 0 0-2 2v11c0 1.1.9 2 2 2h17a2 2 0 0 0 2-2V2a2 2 0 0 0-2-2"/><path fill="#F01F29" fill-rule="evenodd" d="M0 10h21v5H0z" clip-rule="evenodd"/><path fill="#fff" fill-rule="evenodd" d="M0 0h21v5H0zm9.93 10H10V5H3v5h.07q-.07.24-.07.5C3 11.88 6.5 13 6.5 13s3.5-1.12 3.5-2.5q0-.26-.07-.5" clip-rule="evenodd"/><path fill="#F01F29" fill-rule="evenodd" d="M9 10V4H4v6c0 1.1 2.5 2 2.5 2S9 11.1 9 10" clip-rule="evenodd"/><path fill="#fff" fill-rule="evenodd" d="M6 8V7H5V6h1V5h1v1h1v1H7v1h1.5v1H7v1H6V9H4.5V8z" clip-rule="evenodd"/><path fill="#0A58AC" fill-rule="evenodd" d="M6.5 12S9 11.1 9 10s-1-1-2.5 0C5 9 4 8.9 4 10s2.5 2 2.5 2" clip-rule="evenodd"/><path stroke="#000" stroke-opacity=".1" d="M19 .5H2C1.17.5.5 1.17.5 2v11c0 .83.67 1.5 1.5 1.5h17c.83 0 1.5-.67 1.5-1.5V2c0-.83-.67-1.5-1.5-1.5Z"/></g></g><defs><clipPath id="a"><path fill="#fff" d="M0 0h21v15H0z"/></clipPath></defs></svg>