<svg xmlns="http://www.w3.org/2000/svg" width="21" height="15" fill="none"><g clip-path="url(#a)"><mask id="b" width="21" height="15" x="0" y="0" maskUnits="userSpaceOnUse" style="mask-type:alpha"><path fill="#fff" d="M19 0H2a2 2 0 0 0-2 2v11c0 1.1.9 2 2 2h17a2 2 0 0 0 2-2V2a2 2 0 0 0-2-2"/></mask><g mask="url(#b)"><path fill="#FFD400" d="M19 0H2a2 2 0 0 0-2 2v11c0 1.1.9 2 2 2h17a2 2 0 0 0 2-2V2a2 2 0 0 0-2-2"/><path fill="#10B630" fill-rule="evenodd" d="M0 11v4h21v-4zM0 0v4h21V0z" clip-rule="evenodd"/><path fill="#D70F3B" fill-rule="evenodd" d="M0 0v15.03L7 7.5z" clip-rule="evenodd"/><path fill="#000" fill-rule="evenodd" d="m10.5 8.42-1.15.6.22-1.27-.92-.9 1.28-.19.57-1.16.57 1.16 1.28.18-.92.9.22 1.28zm6 0-1.15.6.22-1.27-.92-.9 1.28-.19.57-1.16.57 1.16 1.28.18-.92.9.22 1.28" clip-rule="evenodd"/><path stroke="#000" stroke-opacity=".1" d="M19 .5H2C1.17.5.5 1.17.5 2v11c0 .83.67 1.5 1.5 1.5h17c.83 0 1.5-.67 1.5-1.5V2c0-.83-.67-1.5-1.5-1.5Z"/></g></g><defs><clipPath id="a"><path fill="#fff" d="M0 0h21v15H0z"/></clipPath></defs></svg>