<svg xmlns="http://www.w3.org/2000/svg" width="21" height="15" fill="none"><g clip-path="url(#a)"><mask id="b" width="21" height="15" x="0" y="0" maskUnits="userSpaceOnUse" style="mask-type:alpha"><path fill="#fff" d="M19 0H2a2 2 0 0 0-2 2v11c0 1.1.9 2 2 2h17a2 2 0 0 0 2-2V2a2 2 0 0 0-2-2"/></mask><g mask="url(#b)"><path fill="#012A87" d="M19 0H2a2 2 0 0 0-2 2v11c0 1.1.9 2 2 2h17a2 2 0 0 0 2-2V2a2 2 0 0 0-2-2"/><path fill="#DC171D" d="M21 0H0v7h21z"/><path fill="#fff" fill-rule="evenodd" d="m0 0 10 7.5L0 15z" clip-rule="evenodd"/><path fill="#BC725D" fill-rule="evenodd" d="M1 5h2l1 1 1-1h2L5 6H3z" clip-rule="evenodd"/><path fill="#62AFE1" d="M4 10c.55 0 1-.9 1-2s-.45-2-1-2-1 .9-1 2 .45 2 1 2"/><path fill="#FFDF00" fill-rule="evenodd" d="M3 7v2h2V7l1 2-1 1H3L2 9z" clip-rule="evenodd"/><path stroke="#000" stroke-opacity=".1" d="M19 .5H2C1.17.5.5 1.17.5 2v11c0 .83.67 1.5 1.5 1.5h17c.83 0 1.5-.67 1.5-1.5V2c0-.83-.67-1.5-1.5-1.5Z"/></g></g><defs><clipPath id="a"><path fill="#fff" d="M0 0h21v15H0z"/></clipPath></defs></svg>