<svg xmlns="http://www.w3.org/2000/svg" width="21" height="15" fill="none"><g clip-path="url(#a)"><mask id="b" width="21" height="15" x="0" y="0" maskUnits="userSpaceOnUse" style="mask-type:alpha"><path fill="#fff" d="M19 0H2a2 2 0 0 0-2 2v11c0 1.1.9 2 2 2h17a2 2 0 0 0 2-2V2a2 2 0 0 0-2-2"/></mask><g mask="url(#b)"><path fill="#FFDE00" d="M19 0H2a2 2 0 0 0-2 2v11c0 1.1.9 2 2 2h17a2 2 0 0 0 2-2V2a2 2 0 0 0-2-2"/><path fill="#4769C1" fill-rule="evenodd" d="M0 12h21v3H0zM0 0h21v3H0z" clip-rule="evenodd"/><path fill="#BC0A33" fill-rule="evenodd" d="M0 4h21v7H0z" clip-rule="evenodd"/><path fill="#E1C400" fill-rule="evenodd" d="M4 8h13v1H4zm2-2h10v1H6z" clip-rule="evenodd"/><path fill="#9D9191" fill-rule="evenodd" d="M16 6h2v1h-2z" clip-rule="evenodd"/><path fill="#fff" fill-rule="evenodd" d="M10.5 10c2.48 0 4.5-2.5 4.5-2.5S12.98 5 10.5 5 6 7.5 6 7.5 8.02 10 10.5 10" clip-rule="evenodd"/><path fill="#000" fill-rule="evenodd" d="M10.5 10C11 10 12 7.5 12 7.5S11 5 10.5 5C8.02 5 6 7.5 6 7.5S8.02 10 10.5 10" clip-rule="evenodd"/><path fill="#878787" fill-rule="evenodd" d="M8 7h1v1H8zm2 0h1v1h-1z" clip-rule="evenodd"/><path fill="#5B5B5B" fill-rule="evenodd" stroke="#979797" d="M13 7h1v1h-1z" clip-rule="evenodd"/><path stroke="#000" stroke-opacity=".1" d="M19 .5H2C1.17.5.5 1.17.5 2v11c0 .83.67 1.5 1.5 1.5h17c.83 0 1.5-.67 1.5-1.5V2c0-.83-.67-1.5-1.5-1.5Z"/></g></g><defs><clipPath id="a"><path fill="#fff" d="M0 0h21v15H0z"/></clipPath></defs></svg>