<svg xmlns="http://www.w3.org/2000/svg" width="21" height="15" fill="none"><g clip-path="url(#a)"><mask id="b" width="21" height="15" x="0" y="0" maskUnits="userSpaceOnUse" style="mask-type:alpha"><path fill="#fff" d="M19 0H2a2 2 0 0 0-2 2v11c0 1.1.9 2 2 2h17a2 2 0 0 0 2-2V2a2 2 0 0 0-2-2"/></mask><g mask="url(#b)"><path fill="#2DB771" d="M19 0H2a2 2 0 0 0-2 2v11c0 1.1.9 2 2 2h17a2 2 0 0 0 2-2V2a2 2 0 0 0-2-2"/><path fill="#D4B339" fill-rule="evenodd" d="M2 0h1v15H2zm2 0h1v15H4zm2 0h1v15H6z" clip-rule="evenodd"/><path fill="#AE6A3E" fill-rule="evenodd" d="m5 0 2 1.5L5 3zm0 3 2 1.5L5 6zm0 3 2 1.5L5 9zm0 3 2 1.5L5 12zm0 3 2 1.5L5 15zM4 0 2 1.5 4 3zm0 3L2 4.5 4 6zm0 3L2 7.5 4 9zm0 3-2 1.5L4 12zm0 3-2 1.5L4 15zM4 0h1v2H4zm0 13h1v2H4zm0-8h1v2H4zm0-2h1v1H4zm0 8h1v1H4zm0-3h1v2H4z" clip-rule="evenodd"/><path fill="#fff" fill-rule="evenodd" d="M11.24 3.01 11.5 3a2.5 2.5 0 1 1-2.49 2.24A2 2 0 1 0 11.24 3M10 4h1v1h-1z" clip-rule="evenodd"/><path fill="#9EE2C0" fill-rule="evenodd" d="M8 4h1v1H8zm2-2h1v1h-1z" clip-rule="evenodd"/><path stroke="#000" stroke-opacity=".1" d="M19 .5H2C1.17.5.5 1.17.5 2v11c0 .83.67 1.5 1.5 1.5h17c.83 0 1.5-.67 1.5-1.5V2c0-.83-.67-1.5-1.5-1.5Z"/></g></g><defs><clipPath id="a"><path fill="#fff" d="M0 0h21v15H0z"/></clipPath></defs></svg>