<svg xmlns="http://www.w3.org/2000/svg" width="21" height="15" fill="none"><g clip-path="url(#a)"><mask id="b" width="21" height="15" x="0" y="0" maskUnits="userSpaceOnUse" style="mask-type:alpha"><path fill="#fff" d="M19 0H2a2 2 0 0 0-2 2v11c0 1.1.9 2 2 2h17a2 2 0 0 0 2-2V2a2 2 0 0 0-2-2"/></mask><g mask="url(#b)"><path fill="#FCE102" d="M19 0H2a2 2 0 0 0-2 2v11c0 1.1.9 2 2 2h17a2 2 0 0 0 2-2V2a2 2 0 0 0-2-2"/><path fill="#000" fill-rule="evenodd" d="M0 0h21v2H0z" clip-rule="evenodd"/><path fill="#DE0200" fill-rule="evenodd" d="M0 4h21v3H0z" clip-rule="evenodd"/><path fill="#000" fill-rule="evenodd" d="M0 7h21v3H0z" clip-rule="evenodd"/><path fill="#DE0200" d="M20 12H1a1 1 0 0 0-1 1v1a1 1 0 0 0 1 1h19a1 1 0 0 0 1-1v-1a1 1 0 0 0-1-1"/><path fill="#fff" d="M10 10a3 3 0 1 0 0-6 3 3 0 0 0 0 6"/><path fill="#000" fill-rule="evenodd" d="M10 4 9 7l1 2 1-2v3l1-3-1-1-1 1z" clip-rule="evenodd"/><path stroke="#000" stroke-opacity=".1" d="M19 .5H2C1.17.5.5 1.17.5 2v11c0 .83.67 1.5 1.5 1.5h17c.83 0 1.5-.67 1.5-1.5V2c0-.83-.67-1.5-1.5-1.5Z"/></g></g><defs><clipPath id="a"><path fill="#fff" d="M0 0h21v15H0z"/></clipPath></defs></svg>