<svg xmlns="http://www.w3.org/2000/svg" width="16" height="15" fill="none"><g clip-path="url(#a)"><mask id="b" width="21" height="15" x="0" y="0" maskUnits="userSpaceOnUse" style="mask-type:alpha"><path fill="#fff" d="M19 0H2a2 2 0 0 0-2 2v11c0 1.1.9 2 2 2h17a2 2 0 0 0 2-2V2a2 2 0 0 0-2-2"/></mask><g mask="url(#b)"><path fill="#FFE200" fill-rule="evenodd" d="M0 0h8v15H0z" clip-rule="evenodd"/><path fill="#fff" fill-rule="evenodd" d="M8 0h6a2 2 0 0 1 2 2v11a2 2 0 0 1-2 2H8z" clip-rule="evenodd"/><path stroke="#CCC" d="m10 6 3 3"/><path stroke="#ED9069" d="M11.5 7.5V10"/><path fill="#CF9E00" fill-rule="evenodd" d="M10 6h3l-1.5-2z" clip-rule="evenodd"/><path stroke="#CF9E00" d="m13 6-3 3"/><path stroke="#000" stroke-opacity=".1" d="M14 .5H2C1.17.5.5 1.17.5 2v11c0 .83.67 1.5 1.5 1.5h12c.83 0 1.5-.67 1.5-1.5V2c0-.83-.67-1.5-1.5-1.5Z"/></g></g><defs><clipPath id="a"><path fill="#fff" d="M0 0h16v15H0z"/></clipPath></defs></svg>