<svg xmlns="http://www.w3.org/2000/svg" width="21" height="15" fill="none"><g clip-path="url(#a)"><mask id="b" width="21" height="15" x="0" y="0" maskUnits="userSpaceOnUse" style="mask-type:alpha"><path fill="#fff" d="M19 0H2a2 2 0 0 0-2 2v11c0 1.1.9 2 2 2h17a2 2 0 0 0 2-2V2a2 2 0 0 0-2-2"/></mask><g mask="url(#b)"><path fill="#fff" d="M19 0H2a2 2 0 0 0-2 2v11c0 1.1.9 2 2 2h17a2 2 0 0 0 2-2V2a2 2 0 0 0-2-2"/><path fill="#0081C6" fill-rule="evenodd" d="m15.25 9 .75.75L13.75 12l-.75-.75z" clip-rule="evenodd"/><path fill="#369443" fill-rule="evenodd" d="M6.75 9 6 9.75 8.25 12l.75-.75z" clip-rule="evenodd"/><path fill="#F4C53D" fill-rule="evenodd" d="M7 9h1v1l-2 1z" clip-rule="evenodd"/><path fill="#0081C6" fill-rule="evenodd" d="M3 7h1v3H3zm14 0h1v3h-1z" clip-rule="evenodd"/><path fill="#F4C53D" fill-rule="evenodd" d="M11 4V3H9v1l1 1v2h1zM4 4l4 1v3L4 5zm13 0-4 1v3l4-3zm-9 7 2.5 1 2.5-1-1-1H9z" clip-rule="evenodd"/><path fill="#A60032" fill-rule="evenodd" d="M8 6h5v4l-2.5 1L8 10z" clip-rule="evenodd"/><path fill="#162667" fill-rule="evenodd" d="M8 5h5v2H8z" clip-rule="evenodd"/><path fill="#fff" fill-rule="evenodd" d="M9 7h1v3H9zm2 0h1v3h-1z" clip-rule="evenodd"/><path fill="#F4C53D" fill-rule="evenodd" d="M14 9h-1v1l2 1z" clip-rule="evenodd"/><path stroke="#000" stroke-opacity=".1" d="M19 .5H2C1.17.5.5 1.17.5 2v11c0 .83.67 1.5 1.5 1.5h17c.83 0 1.5-.67 1.5-1.5V2c0-.83-.67-1.5-1.5-1.5Z"/></g></g><defs><clipPath id="a"><path fill="#fff" d="M0 0h21v15H0z"/></clipPath></defs></svg>