<svg xmlns="http://www.w3.org/2000/svg" width="21" height="15" fill="none"><g clip-path="url(#a)"><mask id="b" width="21" height="15" x="0" y="0" maskUnits="userSpaceOnUse" style="mask-type:alpha"><path fill="#fff" d="M19 0H2a2 2 0 0 0-2 2v11c0 1.1.9 2 2 2h17a2 2 0 0 0 2-2V2a2 2 0 0 0-2-2"/></mask><g mask="url(#b)"><path fill="#fff" d="M19 0H2a2 2 0 0 0-2 2v11c0 1.1.9 2 2 2h17a2 2 0 0 0 2-2V2a2 2 0 0 0-2-2"/><path fill="#00963F" fill-rule="evenodd" d="M0 9h21v6H0z" clip-rule="evenodd"/><path fill="#D4062E" fill-rule="evenodd" d="M0 0h21v6H0z" clip-rule="evenodd"/><path fill="#000" fill-rule="evenodd" d="M9.2 9 2 15.03H0V0h2l7.2 6H21v3z" clip-rule="evenodd"/><path fill="#FECF00" fill-rule="evenodd" d="M8.9 8 .5 15l-.5.03V0h.5l8.4 7H21v1z" clip-rule="evenodd"/><path fill="#000" fill-rule="evenodd" d="m0 1 8 6.5L0 14z" clip-rule="evenodd"/><path fill="#FECF00" fill-rule="evenodd" d="M1.65 9.35A2.8 2.8 0 0 1 1 7.5C1 6.12 1.9 5 3 5s2 1.12 2 2.5S4.1 10 3 10V9c.55 0 1-.67 1-1.5S3.55 6 3 6s-1 .67-1 1.5c0 .46.14.87.35 1.15z" clip-rule="evenodd"/><path stroke="#000" stroke-opacity=".1" d="M19 .5H2C1.17.5.5 1.17.5 2v11c0 .83.67 1.5 1.5 1.5h17c.83 0 1.5-.67 1.5-1.5V2c0-.83-.67-1.5-1.5-1.5Z"/></g></g><defs><clipPath id="a"><path fill="#fff" d="M0 0h21v15H0z"/></clipPath></defs></svg>