<svg xmlns="http://www.w3.org/2000/svg" width="21" height="15" fill="none"><g clip-path="url(#a)"><mask id="b" width="21" height="15" x="0" y="0" maskUnits="userSpaceOnUse" style="mask-type:alpha"><path fill="#fff" d="M19 0H2a2 2 0 0 0-2 2v11c0 1.1.9 2 2 2h17a2 2 0 0 0 2-2V2a2 2 0 0 0-2-2"/></mask><g mask="url(#b)"><path fill="#fff" d="M19 0H2a2 2 0 0 0-2 2v11c0 1.1.9 2 2 2h17a2 2 0 0 0 2-2V2a2 2 0 0 0-2-2"/><path fill="#02269F" fill-rule="evenodd" d="M0 10h21v5H0z" clip-rule="evenodd"/><path fill="#E24038" fill-rule="evenodd" d="M0 0h21v5H0z" clip-rule="evenodd"/><path fill="#fff" fill-rule="evenodd" d="M8.01 10 2 15.03H0V0h2l6 5h13v5z" clip-rule="evenodd"/><path fill="#008557" fill-rule="evenodd" d="M7.7 9 .5 15l-.5.03V0h.5l7.2 6H21v3z" clip-rule="evenodd"/><path fill="#FFBE0F" fill-rule="evenodd" d="m0 3 6 4.5L0 12z" clip-rule="evenodd"/><path fill="#000" fill-rule="evenodd" d="m0 4 4.75 3.5L0 11z" clip-rule="evenodd"/><path stroke="#000" stroke-opacity=".1" d="M19 .5H2C1.17.5.5 1.17.5 2v11c0 .83.67 1.5 1.5 1.5h17c.83 0 1.5-.67 1.5-1.5V2c0-.83-.67-1.5-1.5-1.5Z"/></g></g><defs><clipPath id="a"><path fill="#fff" d="M0 0h21v15H0z"/></clipPath></defs></svg>